<svg id="Component_55_1" data-name="Component 55 – 1" xmlns="http://www.w3.org/2000/svg" xmlns:xlink="http://www.w3.org/1999/xlink" width="139.086" height="105.467" viewBox="0 0 139.086 105.467">
  <defs>
    <clipPath id="clip-path">
      <rect id="Rectangle_252" data-name="Rectangle 252" width="139.086" height="105.467" fill="#fff"/>
    </clipPath>
  </defs>
  <g id="Group_5715" data-name="Group 5715" clip-path="url(#clip-path)">
    <path id="Path_38669" data-name="Path 38669" d="M15.867,817.527H11.249c0-1.291-1.313-2.1-2.845-2.1a3.124,3.124,0,0,0-3.458,3.48v1.4a3.123,3.123,0,0,0,3.458,3.48c1.532,0,2.845-.787,2.845-1.991H7.835v-3.064h8.032v8.4H13.373l-.482-1.488A7.888,7.888,0,0,1,7.507,827.4C2.5,827.4,0,824.75,0,819.607s3-7.792,8.207-7.792c4.224,0,7.66,1.926,7.66,5.712" transform="translate(0 -721.931)" fill="#fff"/>
    <path id="Path_38670" data-name="Path 38670" d="M186.746,822.944l3.349,6.3h-5.428L182,823.754H180.2v5.493h-4.837V814.19h9.214c3.349,0,5.078,2.167,5.078,4.618a4.307,4.307,0,0,1-2.911,4.136m-3.371-5.318H180.2v2.779h3.173a1.36,1.36,0,0,0,1.357-1.4,1.341,1.341,0,0,0-1.357-1.379" transform="translate(-155.949 -724.043)" fill="#fff"/>
    <path id="Path_38671" data-name="Path 38671" d="M334.123,814.19h13.022V817.8H338.96v2.079h7v3.458h-7v2.3H347.3v3.611H334.123Z" transform="translate(-297.129 -724.043)" fill="#fff"/>
    <path id="Path_38672" data-name="Path 38672" d="M479.378,829.247h-4.837V823.4l-5.975-9.214h5.559l2.889,5.012h.087l2.889-5.012h5.275l-5.887,9.214Z" transform="translate(-416.686 -724.043)" fill="#fff"/>
    <path id="Path_38673" data-name="Path 38673" d="M639.751,829.247l-1.948-9.17h-.087l-1.948,9.17h-5.318l-3.523-15.057h5.034l1.729,8.535h.087l1.707-8.535h4.771l1.817,8.535h.087l1.619-8.535h4.815l-3.523,15.057Z" transform="translate(-557.513 -724.043)" fill="#fff"/>
    <path id="Path_38674" data-name="Path 38674" d="M850.382,819.607c0,5.143-3,7.792-8.141,7.792s-8.12-2.649-8.12-7.792,2.976-7.792,8.12-7.792,8.141,2.648,8.141,7.792m-11.315-.7v1.4c0,2.058,1.05,3.48,3.174,3.48s3.195-1.422,3.195-3.48v-1.4c0-2.057-1.072-3.48-3.195-3.48s-3.174,1.423-3.174,3.48" transform="translate(-741.767 -721.931)" fill="#fff"/>
    <path id="Path_38675" data-name="Path 38675" d="M1009.477,814.19h4.837V825.4h7.726v3.852h-12.563Z" transform="translate(-897.708 -724.043)" fill="#fff"/>
    <path id="Path_38676" data-name="Path 38676" d="M1146.292,814.19h12.169V817.8h-7.332v2.583h6.3v3.458h-6.3v5.406h-4.837Z" transform="translate(-1019.374 -724.043)" fill="#fff"/>
    <path id="Path_38677" data-name="Path 38677" d="M378.553,75.048c-5.425.732-12.927-1.213-17.457-4,.122,1.382.476,3.254.593,4.578-6.809-1.167-15.293-6.158-18.533-11.651a17.439,17.439,0,0,0-.825,5.959c-2.652-1.494-9.836-8.99-10.082-18.96a28.973,28.973,0,0,0-2.786,5.047c-4.168-10.421.732-25.121,10.417-31.939,2.8-1.971,6.117-3.651,6.976-7.3,1.024-4.35,6.611-21.068,13.705-15.748a28.811,28.811,0,0,1,6.62,7.63c.468.717.937,1.433,1.371,2.171.383.651.846.65,1.435.3,3.882-2.3,7.41-5.194,11.477-7.189,1.872-.919,10.721-4.129,10.171.835a27.461,27.461,0,0,1-.992,5.11c-.824,2.651-1.774,5.272-2.845,7.833a38.687,38.687,0,0,1-2.734,5.163,1.3,1.3,0,0,0-.078,1.512c.977,1.863,1.9,3.754,2.88,5.615a5.809,5.809,0,0,1,.318,4.584c-2.763,8.64,6.665,13.809,9.8,20.52a2.253,2.253,0,0,1-.4,2.681c-1.132,1.177-2.329,2.292-3.474,3.457a28.833,28.833,0,0,1-7.838,5.455,6.394,6.394,0,0,1-5.152.008c-1.289-.488-2.733-1.971-4.122-.916-1.312,1-.766,2.925-.335,4.223.154.464,2.061,5,1.9,5.019M362.715,51.94c-.579.4.76,5.325,1.02,6.007,1.214,3.2,4.851,7.342,8.138,8.47-.325-.594-.478-.91-.663-1.206-.871-1.393-3.689-10.884,1.089-8.712,2.094.952,3.286,3.1,5.062,4.468,3.611,2.781,10.376,4.352,12.959-.546a1.081,1.081,0,0,0-.6-1.713c-1.765-.625-3.622-1.389-3.287-3.56.215-1.4,1.264-1.89,2.488-2.247a20.265,20.265,0,0,1,3.771-.666c-3.432-4.485-7.631-11.593-14.084-11.591a6.532,6.532,0,0,1-3.1-.592c-1.96-1.107-4.1-1.36-6.212-1.814-.45-.1-1.1-.527-1.157-.888a1.873,1.873,0,0,1,.523-1.562,9.229,9.229,0,0,1,2.824-1.407,3.921,3.921,0,0,1,4.534,1.786c.356.524.7,1.054,1.056,1.585.184.276,1.693-2.643,1.777-2.949.551-1.991-.13-3.921-2.409-4.05C370.158,30.4,363.366,34,363,40.863c-.034.641.085.875.865.943a35.378,35.378,0,0,1,9.623,2.066A87.923,87.923,0,0,0,360.7,47.954c-2.623,1.154-2.2-6.2-1.808-6.4-4.084,2.152-4.2,11.343-2.059,14.467l5.878-4.077m-9.588-34.733c.2-.271,2.742-4.925,3.873-6.946a6.241,6.241,0,0,1,1.452-1.8c.87-.7,1.3-.577,1.679.456a56.45,56.45,0,0,1,1.952,5.97c.687,2.85-.067,4.192-2.648,5.557a37.115,37.115,0,0,0-9.332,7.264,19.989,19.989,0,0,0-1.476,1.947c2.979-.87,5.729-2.078,8.934-2.068-4.447,5.132-6.422,10.227-6.466,14.255a43.814,43.814,0,0,1,22.185-16.178c-1.83-1.1-5.029-1.658-7.533-2.275-.318-.078-.782-.213-.861-.435-.251-.7,1.437-3.064,1.634-3.772a11.079,11.079,0,0,0-1.2-8.258,57.794,57.794,0,0,0-4.712-6.468c-2.8-3.554-5.406,1.636-6.233,3.971a23.688,23.688,0,0,0-.98,5.123c-.081.674.126,3.128-.269,3.658M388.546,5.9a1.993,1.993,0,0,0-1.5.438,25.312,25.312,0,0,0-7.513,9.426,1.768,1.768,0,0,0,.1,1.426c1.149,1.892,3.566-2.195,3.283-.059-.283,4.145-.566,3.472.061,4.217.363.431.8.48,1.1-.116a34.09,34.09,0,0,0,1.783-3.641c.448-1.241,4.51-11.066,2.687-11.69m-3.461,23.661c-.528.677-1.119,1.34-1.6,2.075a2.077,2.077,0,0,0,.244,2.819c.456.537.931,1.059,1.479,1.682,1.1-1.071,2.185-2.167,2.048-3.894a2.6,2.6,0,0,0-2.171-2.682" transform="translate(-291.656 0)" fill="#fff"/>
  </g>
</svg>
