<svg id="Component_56_1" data-name="Component 56 – 1" xmlns="http://www.w3.org/2000/svg" xmlns:xlink="http://www.w3.org/1999/xlink" width="147.25" height="95.376" viewBox="0 0 147.25 95.376">
  <defs>
    <clipPath id="clip-path">
      <rect id="Rectangle_253" data-name="Rectangle 253" width="147.25" height="95.376" fill="#fff"/>
    </clipPath>
  </defs>
  <g id="Group_5717" data-name="Group 5717" clip-path="url(#clip-path)">
    <path id="Path_38678" data-name="Path 38678" d="M432.31,15.827l-.166-.129a.912.912,0,0,0-1.545.646c-.363,1.631.5,6.168,2.9,6.069a8.734,8.734,0,0,1-1.188-6.586" transform="translate(-408.082 -14.635)" fill="#fff" fill-rule="evenodd"/>
    <path id="Path_38679" data-name="Path 38679" d="M384.97,36.936c2.364,2.154,4.192,2.758,5.1,6.118a140.34,140.34,0,0,0,6.3,18.639,3.55,3.55,0,0,1-1.514,4.8c-4.26-6.137-5.866-9.818-7.356-17.094a7.951,7.951,0,0,0-2.167-4.229,71.855,71.855,0,0,0-6.032-5.269c-4.82-3.736-12.717-5.694-15.075-10.458-2.758-5.583-2.382-13.591,2.327-18.011-6.857,4.875-4.943,14.558-4.364,16.854-5.2.714-17.309,1.9-22.215,1.637.154-2.345,1.631-10.581-6.765-10.8,6.98.954,6.808,6.315,5.928,10.735l-.776,4.838c-.166,1.04.1,2.136,2.265,3.385,1.434.819,2.154,1.108,2.074,3.047a11.151,11.151,0,0,1-5.786-2.671,3.316,3.316,0,0,1-1.33-2.536l-.185-4.887c-.086-2.4-2.918-2.942-4.918-3.49-3.546-.979-8.027-5.029-10.132-7.682a3.858,3.858,0,0,0,2.487-5.288c.456,2.721-.634,4.469-3.392,4.992a23.176,23.176,0,0,1-4.426.363,6.9,6.9,0,0,1-4.506,1.311c-.419-.006-.96.025-1.213-.339l-1.1-1.6c-.3-.431.037-.929.357-1.317l3.884-4.684.431-1.311a31.631,31.631,0,0,1,5.2-4.087A8.238,8.238,0,0,1,316.829.779.926.926,0,0,1,318.435.3a11.832,11.832,0,0,1,3.736,5.688,80.625,80.625,0,0,0,5.515,6.118c.892.794,5.06,3.964,14.047-1.773C352.358,3.549,363.407-.15,376.21,3.82c27.361,8.482,5.257,41.974,46.221,41.432a.9.9,0,1,1-.252,1.779c-15.672-.142-31.67-2.345-35.566-22.27a8.984,8.984,0,0,0-4.789-6.439,18.1,18.1,0,0,1,2.407,3.145c-10.76,4.506-3.669,11.443.739,15.469m-69.31-24.5a3.107,3.107,0,0,0-.886.191,1.163,1.163,0,0,0-1.354.819,1.253,1.253,0,0,0,1.533-.5,1.537,1.537,0,0,1,.708-.5M320.208,7.5a6.816,6.816,0,0,0-2-5.4c-.32-.369-.591-.215-.665.191-.271,1.5.006,2.567.794,3.121.862.616,1.225,1.114.763,2.1-.4.874,1.016,1.4,1.108-.012" transform="translate(-292.022 0)" fill="#fff" fill-rule="evenodd"/>
    <path id="Path_38680" data-name="Path 38680" d="M730.87,551.983a3.747,3.747,0,0,1,.129,1.323,11.2,11.2,0,0,1-5.786-2.671,3.348,3.348,0,0,1-1.329-2.542l-.179-5.362a3.766,3.766,0,0,0-2.284-3.484c.215.08.431.148.646.209,1.422.388,4.253.862,4.327,2.745l.179,4.887a4.122,4.122,0,0,0,1.631,3.133,14.342,14.342,0,0,0,2.665,1.761" transform="translate(-683.824 -511.144)" fill="#fff" fill-rule="evenodd"/>
    <path id="Path_38681" data-name="Path 38681" d="M1398.1,604.3a4.625,4.625,0,0,1-2.487,3.145c-4.253-6.143-5.866-9.824-7.349-17.094a7.891,7.891,0,0,0-2.173-4.229c-4.339-4.223-8.636-6.229-12.342-8.611a9.774,9.774,0,0,1-4.6-7.793l.068.135c2.493,5.041,10.889,7.319,15.315,10.76a69.367,69.367,0,0,1,5.958,5.207,7.039,7.039,0,0,1,1.927,3.773A39.812,39.812,0,0,0,1398.1,604.3" transform="translate(-1297.787 -540.029)" fill="#fff" fill-rule="evenodd"/>
    <path id="Path_38682" data-name="Path 38682" d="M6,1364.2H2.511v12.219H0v-24.437H2.511v9.849H5.651v-8.488a1.7,1.7,0,0,1,.511-1.028,1.454,1.454,0,0,1,1.065-.437H9.252v.141a4.346,4.346,0,0,0-.492.419,5.374,5.374,0,0,0-.363.418,1.029,1.029,0,0,0-.228.486v8.347a1.427,1.427,0,0,1-.055.4,1.2,1.2,0,0,1-.3.474,1.383,1.383,0,0,1-.382.314c-.142.068-.259.129-.351.172a2.032,2.032,0,0,1,.437.074,1.371,1.371,0,0,1,.646.449,1.492,1.492,0,0,1,.351.979v10.507a.954.954,0,0,0,.222.511c.129.148.252.283.369.4a5.867,5.867,0,0,0,.486.419v.135H7.571a1.458,1.458,0,0,1-1.065-.431,1.736,1.736,0,0,1-.5-1.034Zm13.006,12.219,2.831-24.437h3.416l2.831,24.437H25.465l-.591-6.106h-2.69l-.591,6.106Zm3.386-8.482h2.271l-1.009-10.821v-.142a.246.246,0,0,0-.018-.1c-.012-.025-.006-.055.018-.1a.6.6,0,0,0,0-.258c-.025-.1-.062-.16-.111-.16s-.08.055-.1.16a.6.6,0,0,0,0,.258v.351Zm18.072-7.891q-.037-.176-.074-.314c-.043-.228-.1-.345-.172-.345s-.1.092-.1.277a3.49,3.49,0,0,0,.037.523c0,.068.019.357.068.856s.086,1.065.123,1.693.074,1.256.123,1.884.068,1.1.068,1.4v.314l.172,10.089H38.194v-24.437h1.884a3.357,3.357,0,0,1,.283.7c.16.462.363,1.071.609,1.816s.511,1.594.8,2.548.591,1.927.893,2.93q1.043,3.527,2.376,8l.135.523c.025.092.062.142.1.142.074,0,.1-.092.1-.283a3.572,3.572,0,0,0-.031-.523c0-.068-.018-.351-.055-.856s-.074-1.065-.123-1.693-.086-1.25-.117-1.865S45,1362.324,45,1362v-.314l-.209-9.707H47.3v24.437H45.421c-.043,0-.148-.228-.3-.7s-.351-1.083-.6-1.853-.511-1.637-.8-2.616-.585-1.976-.893-3q-1.08-3.592-2.37-8.205m22.08,3.841h4.647v8.7a3.95,3.95,0,0,0-.037.523,2.666,2.666,0,0,0-.037.468,1.423,1.423,0,0,1-.068.474,3.12,3.12,0,0,1-.369.9,3.34,3.34,0,0,1-.5.7,5.75,5.75,0,0,1-.837.628,2.953,2.953,0,0,1-1.607.382H61.462a2.945,2.945,0,0,1-1.6-.382,5.888,5.888,0,0,1-.843-.628,3.852,3.852,0,0,1-.5-.7,3.28,3.28,0,0,1-.363-.9,2.067,2.067,0,0,1-.1-.474,3.377,3.377,0,0,1-.037-.468,1.86,1.86,0,0,1,0-.523v-16.761a1.86,1.86,0,0,1,0-.523,3.084,3.084,0,0,1,.037-.455,2.748,2.748,0,0,1,.1-.486,3.392,3.392,0,0,1,.363-.911,3.583,3.583,0,0,1,.5-.7,5.458,5.458,0,0,1,.843-.628,2.891,2.891,0,0,1,1.6-.388h2.2a2.927,2.927,0,0,1,1.607.388,5.656,5.656,0,0,1,.837.628,3.344,3.344,0,0,1,.5.7,3.636,3.636,0,0,1,.369.911,1.893,1.893,0,0,1,.068.486,2.62,2.62,0,0,0,.037.455c0,.16.012.339.031.523v1.046H64.644v-2.758H62a5.238,5.238,0,0,0-.542.1.9.9,0,0,0-.406.209,1.627,1.627,0,0,0-.369.474,2.546,2.546,0,0,0-.123.782l-.037,1.748v16.86h2.505a3.132,3.132,0,0,0,.634-.068.969.969,0,0,0,.523-.246,1.619,1.619,0,0,0,.369-.468,2.559,2.559,0,0,0,.123-.788v-6.457h-2.13Zm14.65-8.063a1.86,1.86,0,0,1,0-.523,4.147,4.147,0,0,1,.031-.455,4.574,4.574,0,0,1,.1-.486,3.634,3.634,0,0,1,.369-.911,3.343,3.343,0,0,1,.5-.7,5.656,5.656,0,0,1,.837-.628,2.927,2.927,0,0,1,1.607-.388h2.518a2.927,2.927,0,0,1,1.607.388,5.656,5.656,0,0,1,.837.628,3.344,3.344,0,0,1,.5.7,3.634,3.634,0,0,1,.369.911,1.891,1.891,0,0,1,.068.486,2.62,2.62,0,0,0,.037.455,3.965,3.965,0,0,0,.031.523v16.761a3.9,3.9,0,0,0-.031.523,2.667,2.667,0,0,0-.037.468,1.6,1.6,0,0,1-.068.474,3.508,3.508,0,0,1-.369.9,3.578,3.578,0,0,1-.5.7,6.122,6.122,0,0,1-.837.628,2.982,2.982,0,0,1-1.607.382H80.649a2.982,2.982,0,0,1-1.607-.382,6.122,6.122,0,0,1-.837-.628,3.578,3.578,0,0,1-.5-.7,3.508,3.508,0,0,1-.369-.9,3.015,3.015,0,0,1-.1-.474,4.567,4.567,0,0,1-.031-.468,1.86,1.86,0,0,1,0-.523Zm5.238,18.466a3.033,3.033,0,0,0,.628-.068.992.992,0,0,0,.523-.246,1.69,1.69,0,0,0,.363-.468,2.561,2.561,0,0,0,.123-.788l.037-1.742v-16.866H81.381a3.077,3.077,0,0,0-.628.074.987.987,0,0,0-.523.24,1.7,1.7,0,0,0-.363.474,2.548,2.548,0,0,0-.123.782l-.037,1.748v16.86Zm21.242-9.387H99.73v11.517H97.219v-24.437h5.411a6.14,6.14,0,0,1,1.865.246,2.443,2.443,0,0,1,.856.523,2.733,2.733,0,0,1,.665,1.644v7.99a1.75,1.75,0,0,1-.049.406,1.35,1.35,0,0,1-.3.468,1.132,1.132,0,0,1-.382.314c-.142.074-.258.129-.351.178a1.92,1.92,0,0,1,.419.135,1.433,1.433,0,0,1,.492.388,1.46,1.46,0,0,1,.345.973v9.781a1.294,1.294,0,0,0,.2.523,2,2,0,0,0,.363.419,3.987,3.987,0,0,0,.523.419v.135h-2.025a1.458,1.458,0,0,1-1.065-.431,1.735,1.735,0,0,1-.5-1.034Zm-3.946-2.376H103.5v-8.168H99.73Zm17.721-6.7a1.858,1.858,0,0,1,0-.523,4.144,4.144,0,0,1,.031-.455,4.587,4.587,0,0,1,.1-.486,3.635,3.635,0,0,1,.369-.911,3.343,3.343,0,0,1,.5-.7,5.656,5.656,0,0,1,.837-.628,2.927,2.927,0,0,1,1.607-.388h2.518a2.927,2.927,0,0,1,1.607.388,5.657,5.657,0,0,1,.837.628,3.344,3.344,0,0,1,.5.7,3.391,3.391,0,0,1,.363.911,1.666,1.666,0,0,1,.074.486,2.625,2.625,0,0,0,.037.455,3.965,3.965,0,0,0,.031.523v16.761a3.9,3.9,0,0,0-.031.523,2.671,2.671,0,0,0-.037.468,1.419,1.419,0,0,1-.074.474,3.28,3.28,0,0,1-.363.9,3.578,3.578,0,0,1-.5.7,6.123,6.123,0,0,1-.837.628,2.982,2.982,0,0,1-1.607.382h-2.518a2.982,2.982,0,0,1-1.607-.382,6.122,6.122,0,0,1-.837-.628,3.578,3.578,0,0,1-.5-.7,3.509,3.509,0,0,1-.369-.9,3.021,3.021,0,0,1-.1-.474,4.563,4.563,0,0,1-.031-.468,1.858,1.858,0,0,1,0-.523Zm5.238,18.466a3.032,3.032,0,0,0,.628-.068.991.991,0,0,0,.523-.246,1.69,1.69,0,0,0,.363-.468,2.56,2.56,0,0,0,.123-.788l.037-1.742v-16.866h-2.727a3.077,3.077,0,0,0-.628.074.987.987,0,0,0-.523.24,1.7,1.7,0,0,0-.363.474,2.547,2.547,0,0,0-.123.782l-.037,1.748v16.86Zm15.13-18.466a2.469,2.469,0,0,1,0-.523,3.091,3.091,0,0,1,.037-.455,4.591,4.591,0,0,1,.1-.486,3.417,3.417,0,0,1,.369-.911,3.343,3.343,0,0,1,.5-.7,5.337,5.337,0,0,1,.837-.628,2.9,2.9,0,0,1,1.607-.388h2.511a2.9,2.9,0,0,1,1.607.388,5.05,5.05,0,0,1,.837.628,3.343,3.343,0,0,1,.511.7,3.391,3.391,0,0,1,.363.911,1.666,1.666,0,0,1,.074.486,2.648,2.648,0,0,0,.031.455,4.014,4.014,0,0,0,.037.523v16.761a3.939,3.939,0,0,0-.037.523,2.708,2.708,0,0,0-.031.468,1.418,1.418,0,0,1-.074.474,3.28,3.28,0,0,1-.363.9,3.577,3.577,0,0,1-.511.7,5.419,5.419,0,0,1-.837.628,2.953,2.953,0,0,1-1.607.382H141.28a2.953,2.953,0,0,1-1.607-.382,5.75,5.75,0,0,1-.837-.628,3.578,3.578,0,0,1-.5-.7,3.3,3.3,0,0,1-.369-.9,3.023,3.023,0,0,1-.1-.474,3.386,3.386,0,0,1-.037-.468,2.469,2.469,0,0,1,0-.523Zm5.238,18.466a2.95,2.95,0,0,0,.628-.068.948.948,0,0,0,.523-.246,1.619,1.619,0,0,0,.369-.468,2.771,2.771,0,0,0,.123-.788l.037-1.742v-16.866h-2.727a3.077,3.077,0,0,0-.628.074.965.965,0,0,0-.523.24,1.879,1.879,0,0,0-.369.474,2.6,2.6,0,0,0-.117.782l-.037,1.748v16.86Z" transform="translate(0 -1281.284)" fill="#fff"/>
  </g>
</svg>
