<svg id="Component_23_5" data-name="Component 23 – 5" xmlns="http://www.w3.org/2000/svg" width="59.642" height="117.277" viewBox="0 0 59.642 117.277">
  <g id="Group_5776" data-name="Group 5776" transform="translate(-223.001 -20.436)">
    <g id="Group_4166" data-name="Group 4166" transform="translate(-3392.747 341.986)">
      <g id="Group_4083" data-name="Group 4083" transform="translate(3615.748 -227.25)">
        <g id="Group_4081" data-name="Group 4081" transform="translate(0)">
          <g id="Group_4080" data-name="Group 4080">
            <path id="Path_38581" data-name="Path 38581" d="M66.281,355.257V343.448a1.283,1.283,0,0,1,1.366-1.294,1.744,1.744,0,0,1,.986.3l13.051,9.167v-9.29H84.6v11.826a1.285,1.285,0,0,1-1.368,1.295,1.748,1.748,0,0,1-.986-.3L69.2,345.985v9.272Z" transform="translate(-66.281 -342.154)" fill="#fff"/>
            <path id="Path_38582" data-name="Path 38582" d="M139.139,355.65c-3.619,0-4.906-1.225-4.906-3.516v-5.9c0-2.292,1.287-3.517,4.906-3.517h13.372v2.537H139.119c-1.306,0-1.89.367-1.89,1.085v5.685c0,.717.584,1.085,1.89,1.085h13.434v2.537Z" transform="translate(-113.341 -342.547)" fill="#fff"/>
            <path id="Path_38583" data-name="Path 38583" d="M205.592,355.65c-3.62,0-4.907-1.225-4.907-3.516v-5.9c0-2.292,1.286-3.517,4.907-3.517h13.372v2.537H205.572c-1.309,0-1.891.367-1.891,1.085v5.685c0,.717.583,1.085,1.891,1.085H219v2.537Z" transform="translate(-159.362 -342.547)" fill="#fff"/>
          </g>
        </g>
        <g id="Group_4082" data-name="Group 4082" transform="translate(10.07 16.545)">
          <path id="Path_38584" data-name="Path 38584" d="M105.558,399.873v.757h-1.371a2.131,2.131,0,0,1-.413-.034,1.761,1.761,0,0,1-.289-.079.965.965,0,0,1-.178-.086.922.922,0,0,1-.077-.057.791.791,0,0,1-.083.057,1.045,1.045,0,0,1-.189.086,1.974,1.974,0,0,1-.323.079,2.755,2.755,0,0,1-.466.034h-1.206a4.763,4.763,0,0,1-.612-.045,2.125,2.125,0,0,1-.629-.183,1.321,1.321,0,0,1-.491-.4,1.14,1.14,0,0,1-.2-.7,1.794,1.794,0,0,1,.108-.64,1.086,1.086,0,0,1,.362-.475,1.794,1.794,0,0,1,.672-.3,4.516,4.516,0,0,1,1.031-.1,3.554,3.554,0,0,1,.74.071,2.775,2.775,0,0,0,.56.072.872.872,0,0,0,.18-.018c.057-.011.086-.053.086-.124h.905V399.6c0,.115.034.189.1.221a.757.757,0,0,0,.3.057Zm-3.361,0a1.707,1.707,0,0,0,.284-.019.371.371,0,0,0,.177-.071.252.252,0,0,0,.085-.147,1.065,1.065,0,0,0,.023-.245v-.814a.509.509,0,0,1-.311.074,3.066,3.066,0,0,1-.327-.018c-.12-.012-.248-.027-.379-.045s-.267-.032-.4-.045-.27-.019-.4-.019a1.6,1.6,0,0,0-.494.064.814.814,0,0,0-.307.169.578.578,0,0,0-.156.241.951.951,0,0,0-.042.279.471.471,0,0,0,.3.456,2.288,2.288,0,0,0,.925.14Zm-.879-3.509a.364.364,0,0,1-.13.281.495.495,0,0,1-.637,0,.37.37,0,0,1,0-.563.5.5,0,0,1,.637,0A.366.366,0,0,1,101.318,396.364Zm1.266,0a.364.364,0,0,1-.13.281.466.466,0,0,1-.321.116.484.484,0,0,1-.327-.116.362.362,0,0,1,0-.563.488.488,0,0,1,.327-.116.469.469,0,0,1,.321.116A.366.366,0,0,1,102.584,396.364Z" transform="translate(-99.034 -395.967)" fill="#fff"/>
          <path id="Path_38585" data-name="Path 38585" d="M120.47,400.648a1.025,1.025,0,0,1-.389-.068,1.536,1.536,0,0,1-.31-.172.842.842,0,0,1-.379.2,2.752,2.752,0,0,1-.509.037h-1.939v-.757h1.991a1.088,1.088,0,0,0,.228-.019.239.239,0,0,0,.121-.06.176.176,0,0,0,.042-.117c0-.05,0-.112,0-.188V398.2a.432.432,0,0,1,.086-.292.4.4,0,0,1,.31-.1h.517v1.844a.189.189,0,0,0,.108.2.841.841,0,0,0,.307.045h5.886a2.867,2.867,0,0,0,.483-.038,1.2,1.2,0,0,0,.388-.128.662.662,0,0,0,.253-.241.718.718,0,0,0,.091-.376.741.741,0,0,0-.078-.351.662.662,0,0,0-.215-.241,1.022,1.022,0,0,0-.315-.139,1.544,1.544,0,0,0-.384-.045,2.048,2.048,0,0,0-.5.064,3.566,3.566,0,0,0-.461.146l-3.06,1.192a.355.355,0,0,1-.1.023.106.106,0,0,1-.043-.008c-.022-.005-.035-.032-.035-.082v-.7q.861-.33,1.513-.589t1.146-.438a9.155,9.155,0,0,1,.879-.272,2.965,2.965,0,0,1,.711-.094,2.826,2.826,0,0,1,.737.12,1.852,1.852,0,0,1,.59.3,1.336,1.336,0,0,1,.387.468,1.356,1.356,0,0,1,.138.622,1.6,1.6,0,0,1-.2.808h1.93v.757Zm5.73-4.259a.361.361,0,0,1,.13-.285.475.475,0,0,1,.323-.112.489.489,0,0,1,.325.112.357.357,0,0,1,.135.285.353.353,0,0,1-.135.274.479.479,0,0,1-.325.116.466.466,0,0,1-.323-.116A.357.357,0,0,1,126.2,396.389Z" transform="translate(-111.438 -395.984)" fill="#fff"/>
          <path id="Path_38586" data-name="Path 38586" d="M156.667,404.717v-.757h2.016a.8.8,0,0,0,.4-.079c.085-.052.129-.174.129-.365v-1.257a.438.438,0,0,1,.086-.294.415.415,0,0,1,.315-.1h.513v1.844a1.174,1.174,0,0,1-.09.488.737.737,0,0,1-.267.308,1.207,1.207,0,0,1-.434.161,3.319,3.319,0,0,1-.6.049Zm3.54,1.372a.361.361,0,0,1-.13.281.468.468,0,0,1-.323.116.484.484,0,0,1-.325-.116.357.357,0,0,1-.135-.281.351.351,0,0,1,.135-.274.481.481,0,0,1,.325-.117.465.465,0,0,1,.323.117A.355.355,0,0,1,160.207,406.089Z" transform="translate(-138.948 -400.054)" fill="#fff"/>
          <path id="Path_38587" data-name="Path 38587" d="M175.675,400.5v.757h-1.818a.7.7,0,0,1-.587-.2.874.874,0,0,1-.156-.539v-3.284c0-.155.031-.254.091-.3a.633.633,0,0,1,.341-.064h.482v3.343a.539.539,0,0,0,.031.237c.02.032.093.049.22.049Z" transform="translate(-150.339 -396.592)" fill="#fff"/>
          <path id="Path_38588" data-name="Path 38588" d="M178.667,400.63v-.757h2.552a.775.775,0,0,1-.211-.345,1.413,1.413,0,0,1-.063-.42,1.353,1.353,0,0,1,.137-.611,1.556,1.556,0,0,1,.374-.488,1.758,1.758,0,0,1,.564-.322,2.131,2.131,0,0,1,.716-.116,2.093,2.093,0,0,1,.711.116,1.829,1.829,0,0,1,.564.318,1.434,1.434,0,0,1,.374.484,1.417,1.417,0,0,1,.133.618,1.387,1.387,0,0,1-.06.412,1.545,1.545,0,0,1-.156.352h1.931v.757Zm3.9-4.267a.364.364,0,0,1-.129.281.459.459,0,0,1-.319.116.454.454,0,0,1-.319-.116.37.37,0,0,1,0-.563.458.458,0,0,1,.319-.116.463.463,0,0,1,.319.116A.366.366,0,0,1,182.572,396.364Zm.163,3.509a1.043,1.043,0,0,0,.643-.207.7.7,0,0,0,.228-.562.712.712,0,0,0-.247-.553.918.918,0,0,0-.641-.222.871.871,0,0,0-.634.222.744.744,0,0,0-.228.553.72.72,0,0,0,.217.528A.96.96,0,0,0,182.735,399.873Zm1.1-3.509a.362.362,0,0,1-.131.281.465.465,0,0,1-.322.116.481.481,0,0,1-.327-.116.362.362,0,0,1,0-.563.485.485,0,0,1,.327-.116.468.468,0,0,1,.322.116A.364.364,0,0,1,183.838,396.364Z" transform="translate(-154.184 -395.967)" fill="#fff"/>
          <path id="Path_38589" data-name="Path 38589" d="M200.279,408.672h2.154v.757h-2.154Z" transform="translate(-169.151 -404.766)" fill="#fff"/>
          <path id="Path_38590" data-name="Path 38590" d="M204.092,400.5h1.689c.168,0,.3,0,.4-.008a.531.531,0,0,0,.224-.049.21.21,0,0,0,.1-.131.92.92,0,0,0,.026-.255v-2.8a.433.433,0,0,1,.086-.293.4.4,0,0,1,.309-.1h.517v3.381a1.425,1.425,0,0,1-.064.454.669.669,0,0,1-.211.311,1.7,1.7,0,0,1-1.034.24h-2.043Z" transform="translate(-171.792 -396.592)" fill="#fff"/>
          <path id="Path_38591" data-name="Path 38591" d="M220.8,401.255v-4.041a.778.778,0,0,1,.018-.183.176.176,0,0,1,.06-.105.264.264,0,0,1,.132-.045,1.9,1.9,0,0,1,.226-.011h.479v4.386Z" transform="translate(-183.36 -396.592)" fill="#fff"/>
        </g>
      </g>
    </g>
    <path id="Path_38592" data-name="Path 38592" d="M135.476,92.772,119.833,112.63l-6.278-8L125.419,89.1,125.4,77.653,119.8,85l-5.809-6.987,8.067-10.49,0-11.415-4.1,5.331-7.037-9.144L110.9,63.68l2.664,3.462-4.142,5.383-6.371-7.663.005,10.889L115.465,90.67l-6.345,8.31L92.349,77.616l-.124,11.113L115.4,118.255l-5.92,7.514L83.223,92.759l0,11.217,23.547,29.565a3.479,3.479,0,0,0,2.723,1.314h.009a3.474,3.474,0,0,0,2.724-1.327L135.5,103.935Z" transform="translate(146.638 -31.855)" fill="#fff"/>
  </g>
</svg>
