<svg id="Component_51_1" data-name="Component 51 – 1" xmlns="http://www.w3.org/2000/svg" width="180.213" height="102.622" viewBox="0 0 180.213 102.622">
  <path id="Path_38502" data-name="Path 38502" d="M408.027,364.8c-23.064,0-44.891-4.75-61.46-13.375-18.473-9.616-28.646-23.089-28.646-37.935s10.173-28.319,28.646-37.935c16.569-8.626,38.4-13.376,61.46-13.376s44.891,4.75,61.461,13.376c18.473,9.616,28.646,23.088,28.646,37.935s-10.173,28.319-28.646,37.935C452.919,360.055,431.092,364.8,408.027,364.8Z" transform="translate(-317.921 -262.183)" fill="#e10034"/>
  <path id="Path_38503" data-name="Path 38503" d="M408.027,364.8c-23.064,0-44.891-4.75-61.46-13.375-18.473-9.616-28.646-23.089-28.646-37.935s10.173-28.319,28.646-37.935c16.569-8.626,38.4-13.376,61.46-13.376s44.891,4.75,61.461,13.376c18.473,9.616,28.646,23.088,28.646,37.935s-10.173,28.319-28.646,37.935C452.919,360.055,431.092,364.8,408.027,364.8Z" transform="translate(-317.921 -262.183)" fill="#e10034"/>
  <path id="Path_38504" data-name="Path 38504" d="M382.862,318.564a2.555,2.555,0,0,0-2.718-2.147h-.064a3.81,3.81,0,0,0-.383.026,4.672,4.672,0,0,0-2.84,1.567,4.54,4.54,0,0,0-1.124,3.625,16.9,16.9,0,0,0,1.732,4.984,19.481,19.481,0,0,1,1.93,5.876,12.349,12.349,0,0,1-3.145,10.056,13.914,13.914,0,0,1-8.544,4.39c-.469.055-.939.087-1.4.1l-.25,0a11.252,11.252,0,0,1-9.362-18.012,10.884,10.884,0,0,1,7.486-4.238c.408-.048.816-.077,1.212-.084l.21,0c5.181,0,7.427,3.478,7.776,6.455a6.9,6.9,0,0,1-2.5,5.677,1.552,1.552,0,0,1-.891.339h0a1.1,1.1,0,0,1-1.055-.71,1.237,1.237,0,0,1,.447-1.393A3.943,3.943,0,0,0,371,331.438c-.308-2.628-2.468-4.327-5.5-4.327l-.146,0c-.311.005-.636.028-.965.066a8.433,8.433,0,0,0-5.827,3.306,8.769,8.769,0,0,0-1.621,6.68,9.155,9.155,0,0,0,9.262,7.468l.187,0c.345-.006.694-.03,1.039-.07a11.424,11.424,0,0,0,7-3.608,10.048,10.048,0,0,0,2.586-8.178,18.185,18.185,0,0,0-1.737-5.023,20.517,20.517,0,0,1-1.926-5.837,6.743,6.743,0,0,1,1.7-5.449,7.167,7.167,0,0,1,4.341-2.323c.2-.023.4-.037.609-.041h.112c2.311,0,4.794,1.294,5.133,4.184a4.5,4.5,0,0,1-3.755,4.846,1.711,1.711,0,0,1-.212.017h0a1.119,1.119,0,0,1-1.178-1.061c-.022-.408.1-.871,1.173-1.211A2.237,2.237,0,0,0,382.862,318.564Zm13.345,7.706a1.5,1.5,0,0,0-.309-1.28,1.656,1.656,0,0,0-1.287-.583,2.005,2.005,0,0,0-1.876,1.624,1.549,1.549,0,0,0,.332,1.287,1.585,1.585,0,0,0,1.232.533A1.974,1.974,0,0,0,396.207,326.27Zm8.355,11.738a5.487,5.487,0,0,0-.547,2.091c0,1.824,1.123,2.828,3.163,2.828,2.256,0,4.192-2.376,4.944-3.973a1.2,1.2,0,0,0,.04-1.243.982.982,0,0,0-.78-.384l-.069,0c-.409,0-.731.286-1.11.741-.078.1-.171.237-.277.387-.671.953-1.685,2.392-2.6,2.392a.858.858,0,0,1-.192-.022c-.674-.157-.674-.583-.674-.723a2.921,2.921,0,0,1,.321-1.11l2.494-5.268a5.871,5.871,0,0,0,.549-2.061,2.768,2.768,0,0,0-3.093-2.862,4.019,4.019,0,0,0-2.62,1.024l-.147.121-.116-.151a2.831,2.831,0,0,0-2.388-.994,2.978,2.978,0,0,0-1.57.5l-.134.087-.105-.121a1.01,1.01,0,0,0-.791-.333,1.283,1.283,0,0,0-1.2.774l-3.918,8.337-.068.137-.023.035-.054.107c-.031.061-.066.127-.106.2a8.321,8.321,0,0,1-.747,1.108,3.4,3.4,0,0,1-1.608,1.169,2.056,2.056,0,0,1-.549.077,1.067,1.067,0,0,1-1.019-.538,1.84,1.84,0,0,1,.2-1.386l3.885-8.3a1.136,1.136,0,0,0-.04-1.136,1.275,1.275,0,0,0-2.213.229l-3.852,8.343-.047.115a5.362,5.362,0,0,1-2.426,2.623,2.111,2.111,0,0,1-.761.14,1.514,1.514,0,0,1-1.179-.456,1.7,1.7,0,0,1,.083-1.829l7.487-15.646a1.319,1.319,0,0,0,.036-1.32,1.108,1.108,0,0,0-.952-.489,1.455,1.455,0,0,0-1.3.86l-7.489,15.924a5.555,5.555,0,0,0-.513,2.128,3.2,3.2,0,0,0,3.439,2.883,4.081,4.081,0,0,0,.417-.021,6.188,6.188,0,0,0,3.086-1.228l.151-.112.109.154a3.335,3.335,0,0,0,2.85,1.268,4.942,4.942,0,0,0,2.339-.573l.149-.08a8.017,8.017,0,0,0,2.959-3.44l2.637-5.721c.31-.7,1.358-2.147,2.617-2.147.451,0,.721.2.721.541a3.051,3.051,0,0,1-.285,1.074l-3.674,7.909a1.116,1.116,0,0,0-.007,1.113,1.082,1.082,0,0,0,.929.458,1.686,1.686,0,0,0,1.5-1.032l3.5-7.637c.559-1.168,1.671-2.426,2.794-2.426.433,0,.652.182.652.541a3.072,3.072,0,0,1-.286,1.008Zm74.081-9.973a2.163,2.163,0,0,0,2.088-1.727,1.686,1.686,0,0,0-.346-1.435,1.84,1.84,0,0,0-1.429-.649A2.2,2.2,0,0,0,476.9,326a1.733,1.733,0,0,0,.373,1.439A1.766,1.766,0,0,0,478.642,328.035Zm-1.732.938a1.256,1.256,0,0,1,1.05.541,1.135,1.135,0,0,1,.04,1.136l-3.884,8.3a2.271,2.271,0,0,0-.271,1.33,1.05,1.05,0,0,0,1.089.734,1.317,1.317,0,0,0,.164-.01c1.528-.2,2.559-1.726,3.038-2.621.043-.1.08-.191.124-.287l3.183-6.773-.238-.041a.979.979,0,0,1-.853-.992,1.356,1.356,0,0,1,1.428-1.308h.138a.634.634,0,0,0,.705-.435l1.326-2.742a1.452,1.452,0,0,1,1.3-.858,1.11,1.11,0,0,1,.952.489,1.319,1.319,0,0,1-.037,1.32l-1.076,2.225h.751a1.037,1.037,0,0,1,1.083,1.06,1.234,1.234,0,0,1-.354.86,1.411,1.411,0,0,1-1.041.4h-1.005a.667.667,0,0,0-.712.451L480.478,339a1.589,1.589,0,0,0-.11,1.376,1.163,1.163,0,0,0,1.033.534,1.38,1.38,0,0,0,.154-.008c1.465-.155,2.815-2.025,3.211-2.991l.48-.98c.113-.232.2-.4.281-.529l1.806-3.741c1.528-3.2,3.341-3.868,4.593-3.868a3.055,3.055,0,0,1,3.247,2.622,3.351,3.351,0,0,1-.193,1.521c-1.148,2.959-3.042,3.752-5.532,4.032-.479.054-1.254.133-1.321.135h0a.444.444,0,0,0-.4.28,3.843,3.843,0,0,0-.592,1.758c0,1.012.645,1.586,1.816,1.616a6.711,6.711,0,0,0,4.515-2.219c.1-.1.207-.2.31-.312.342-.353.7-.718,1.043-.718a.735.735,0,0,1,.715.327,1.305,1.305,0,0,1-.062,1.257,7.665,7.665,0,0,1-6.462,3.829,4.26,4.26,0,0,1-3.871-1.757l-.122-.2-.167.169a5.691,5.691,0,0,1-3.378,1.824c-.155.014-.3.02-.449.02h0a3.524,3.524,0,0,1-2.333-.792,2.048,2.048,0,0,1-.345-.434l-.108-.178-.163.129a5.226,5.226,0,0,1-3.261,1.253h-.047a3.718,3.718,0,0,1-2.744-.97,2.427,2.427,0,0,1-.637-1.879,5.713,5.713,0,0,1,.508-2.023l3.852-8.343A1.254,1.254,0,0,1,476.91,328.973Zm12.213,5.7.044.111.12.007.109,0a5.708,5.708,0,0,0,.825-.075,3.031,3.031,0,0,0,2.524-2.01,1.273,1.273,0,0,0,.062-1.251,1.105,1.105,0,0,0-1-.477h0c-.972.019-1.614,1.166-2.114,2.287l-.53,1.065A.363.363,0,0,0,489.123,334.671Zm15.595,5.49c-2.146,4.764-6.875,10.968-17.22,13.469a26.99,26.99,0,0,1-6.329.75c-8.744,0-16.859-4.1-24.421-8.3l-.119-.066-.1.094q-.3.29-.614.566a15.225,15.225,0,0,1-9.994,3.585,13.256,13.256,0,0,1-4.913-.87c-2.337-.945-3.708-2.542-3.862-4.5a4.477,4.477,0,0,1,2.154-4.276,9.19,9.19,0,0,1,4.942-1.224,23.225,23.225,0,0,1,10.938,3.227l.662.371.329.189.32-.35a32.98,32.98,0,0,0,3.187-4.682l.239-.415-.6.2-.153.043a19.226,19.226,0,0,1-3.6.549q-.413.02-.82.02c-7.14,0-12.737-4.456-13.02-10.366a11.413,11.413,0,0,1,4.124-9.417,15.405,15.405,0,0,1,9.2-3.646l.217,0a13.985,13.985,0,0,1,5.3,1.049,1.065,1.065,0,0,1,.45,1.629l-.042.056a1.056,1.056,0,0,1-.851.421,1.1,1.1,0,0,1-.385-.07,11.078,11.078,0,0,0-3.861-.714c-.237,0-.476.008-.712.025-5.326.369-11.314,5.026-11.053,10.478.221,4.629,4.806,8.12,10.664,8.12.234,0,.47-.006.707-.017a16.6,16.6,0,0,0,5.727-1.376,1.383,1.383,0,0,0,.44-.3l.021-.021.013-.027c.24-.482.47-.952.69-1.4.712-1.712,1.349-3.379,1.993-5.079.678-1.789,1.319-3.479,2.017-5.1.281-.718,1.795-3.792,1.795-3.792,1.566-2.723,3.146-4.085,4.832-4.166.06,0,.119,0,.177,0,1.8,0,2.852,1.409,2.974,3.966.284,5.949-5.388,13.795-12.644,17.49-.055.032-.1.06-.16.088l-.051.026-.027.051a45.848,45.848,0,0,1-4.938,7.691l-.14.171.193.107c6.746,3.726,14.629,7.7,22.824,7.7a24.482,24.482,0,0,0,5.746-.677c7.593-1.835,12.872-5.94,15.692-12.2a22.5,22.5,0,0,0,2-8.882c0-10.831-8.2-21.067-23.085-28.817-15.128-7.875-35.266-12.212-56.7-12.212s-41.577,4.337-56.7,12.212c-14.9,7.755-23.1,17.983-23.1,28.8s8.2,21.043,23.1,28.8c15.128,7.875,35.266,12.212,56.7,12.212,16.3,0,31.985-2.525,45.349-7.3a1.116,1.116,0,0,1,1.424.657,1.107,1.107,0,0,1-.035.861,1.089,1.089,0,0,1-.627.572c-13.606,4.864-29.551,7.435-46.112,7.435-21.79,0-42.293-4.426-57.732-12.463-15.67-8.157-24.3-19.086-24.3-30.773s8.63-22.615,24.3-30.772c15.439-8.037,35.942-12.463,57.732-12.463s42.293,4.426,57.732,12.463c15.67,8.157,24.3,19.077,24.3,30.751A24.173,24.173,0,0,1,504.718,340.161ZM464.942,332.7l.523-.383c5.009-3.666,8.5-9.341,8.3-13.494-.051-1.076-.3-1.6-.75-1.6h-.042c-1.035.05-2.2,1.538-3.572,4.55a42.488,42.488,0,0,0-2.019,4.775c-.492,1.328-1.1,2.847-2.2,5.549Zm-10.379,12.157-.484-.271a20.936,20.936,0,0,0-9.828-2.933,7.021,7.021,0,0,0-3.732.861,2.226,2.226,0,0,0-1.121,2.2c.112,1.426,1.589,2.229,2.458,2.581A10.917,10.917,0,0,0,445.9,348a13.008,13.008,0,0,0,8.464-2.976Zm-31.581-6.745a5.486,5.486,0,0,0-.547,2.091c0,1.855.97,2.758,2.966,2.758,2.055-.055,3.663-1.279,5.443-3.1a33.5,33.5,0,0,0,6.831-11.476c1.959-5.382,1.5-10.39-1.287-14.1a13.585,13.585,0,0,0-10.867-5.255c-.313,0-.631.011-.944.031-4.155.281-7.4,1.505-11.161,2.923a69.177,69.177,0,0,1-11,3.383,16.089,16.089,0,0,1-3.257.341,12.96,12.96,0,0,1-5.644-1.226,7.935,7.935,0,0,1-4.542-5.476c-1.022-4.945,2.009-9.048,7.541-10.21a15.957,15.957,0,0,1,3.313-.364,15.748,15.748,0,0,1,5.247.972,1.548,1.548,0,0,0,.489.083.994.994,0,0,0,.957-.582,1.056,1.056,0,0,0,.022-.821,1.277,1.277,0,0,0-.705-.7,14.473,14.473,0,0,0-5.887-1.233,19.108,19.108,0,0,0-3.9.431c-6.742,1.417-10.562,6.712-9.287,12.877a10.136,10.136,0,0,0,5.764,7.048,15.231,15.231,0,0,0,6.639,1.453,18.31,18.31,0,0,0,3.709-.386,71.159,71.159,0,0,0,11.337-3.482c3.592-1.354,6.694-2.524,10.516-2.782.265-.018.534-.027.8-.027a11.308,11.308,0,0,1,9.054,4.355c1.638,2.179,3.136,6.024.971,11.972a31.194,31.194,0,0,1-6.31,10.708c-.861.959-2.464,2.569-3.522,2.569a.973.973,0,0,1-.167-.014.854.854,0,0,1-.778-.771,2.39,2.39,0,0,1,.316-1.246l2.2-5.38a5.88,5.88,0,0,0,.549-2.062,2.59,2.59,0,0,0-2.78-2.8c-.1,0-.2,0-.313.013a5.267,5.267,0,0,0-1.761.631l-.132.086-.142-.158c-.205-.23-.486-.545-.79-.545a1.112,1.112,0,0,0-1.178.886l-.014.1c-.187,1.418-.191,1.445-4.344,9.482a17.173,17.173,0,0,1-1.293,2.051,1.088,1.088,0,0,0,.875,1.732,1.008,1.008,0,0,0,.6-.2,6.679,6.679,0,0,0,1.916-2.57c.955-1.77,3.617-6.992,3.64-7.035.231-.522,1.092-2.227,2.43-2.227a.8.8,0,0,1,.845.558,2.7,2.7,0,0,1-.365,1.515Zm-7.079-9.221a1.339,1.339,0,0,0,1.052-.5,19.355,19.355,0,0,0,2.226-4.733,1.25,1.25,0,0,0-.192-1.028,1.233,1.233,0,0,0-1.034-.56,1.429,1.429,0,0,0-1.206.98c-.385.8-.728,1.745-1.771,3.707a2.068,2.068,0,0,0-.294,1.079,1.233,1.233,0,0,0,1.22,1.052Z" transform="translate(-334.758 -279.023)" fill="#fff"/>
  <g id="Group_4069" data-name="Group 4069" transform="translate(10.625 13.43)" style="mix-blend-mode: multiply;isolation: isolate">
    <path id="Path_38505" data-name="Path 38505" d="M485.782,334.262a7.148,7.148,0,0,0,.926,2.316,8.388,8.388,0,0,0,3.413,2.912,11.392,11.392,0,0,0,2.161.781,11.2,11.2,0,0,1-1.31-.534,7.935,7.935,0,0,1-4.543-5.476c-.924-4.474,1.47-8.26,6.033-9.8a9.318,9.318,0,0,0-5.88,4.071A8.113,8.113,0,0,0,485.782,334.262Z" transform="translate(-441.866 -317.707)" fill="#aeb0b3"/>
    <path id="Path_38506" data-name="Path 38506" d="M488.551,427.921c.055,0,.107,0,.156-.007a.881.881,0,0,1-.2-.255,1.841,1.841,0,0,1,.2-1.386l3.885-8.3a1.136,1.136,0,0,0-.04-1.136,1.255,1.255,0,0,0-1.05-.541c-.024,0-.047,0-.07,0a1.413,1.413,0,0,1,.378.385c.025.038.045.077.066.117.008.012.019.022.028.034a1.136,1.136,0,0,1,.04,1.136l-3.885,8.3a1.862,1.862,0,0,0-.208,1.375A.879.879,0,0,0,488.551,427.921Z" transform="translate(-443.349 -379.774)" fill="#aeb0b3"/>
    <path id="Path_38507" data-name="Path 38507" d="M541.711,415.9a2.823,2.823,0,0,1,1.262,1.083,2.9,2.9,0,0,1,.513,1.729,5.87,5.87,0,0,1-.549,2.061l-2.494,5.268a2.92,2.92,0,0,0-.321,1.11.731.731,0,0,0,.049.278.713.713,0,0,0,.364.177.553.553,0,0,0,.13.015.789.789,0,0,0,.244-.045.64.64,0,0,1-.138-.424,2.92,2.92,0,0,1,.321-1.11l2.494-5.268a5.872,5.872,0,0,0,.549-2.061A2.667,2.667,0,0,0,541.711,415.9Z" transform="translate(-478.726 -379.51)" fill="#aeb0b3"/>
    <path id="Path_38508" data-name="Path 38508" d="M506.709,404.076a1.5,1.5,0,0,0-.309-1.28,1.649,1.649,0,0,0-1.232-.579,1.834,1.834,0,0,1,.472.4,1.73,1.73,0,0,1,.182.272,1.506,1.506,0,0,1,.238,1.184,1.812,1.812,0,0,1-.271.667,2.3,2.3,0,0,1-.9.905A1.971,1.971,0,0,0,506.709,404.076Z" transform="translate(-454.914 -370.26)" fill="#aeb0b3"/>
    <path id="Path_38509" data-name="Path 38509" d="M518.527,416.181c-.043,0-.086-.009-.131-.009a1.256,1.256,0,0,0-.131.009,1.12,1.12,0,0,1,.1.085C518.42,416.234,518.475,416.211,518.527,416.181Z" transform="translate(-463.954 -379.692)" fill="#aeb0b3"/>
    <path id="Path_38510" data-name="Path 38510" d="M550.384,443.689a1.2,1.2,0,0,0,.04-1.243.982.982,0,0,0-.78-.384l-.069,0a.829.829,0,0,0-.107.009,1.046,1.046,0,0,1,.295.362c0,.006.009.009.013.015a1.2,1.2,0,0,1-.04,1.243,7.685,7.685,0,0,1-.422.767l-.025.041c-.027.044-.053.087-.082.131a7.673,7.673,0,0,1-3.243,2.987C547.991,447.29,549.691,445.161,550.384,443.689Z" transform="translate(-482.674 -397.189)" fill="#aeb0b3"/>
    <path id="Path_38511" data-name="Path 38511" d="M535.542,317.237a15.738,15.738,0,0,0-2.243-.774c.457.15.916.322,1.379.521a1.572,1.572,0,0,1,.768.684,1.155,1.155,0,0,1,.153.265,1.057,1.057,0,0,1-.022.821.989.989,0,0,1-.118.2,1.222,1.222,0,0,1-.312.376,1.189,1.189,0,0,0,.121.009.994.994,0,0,0,.956-.582,1.056,1.056,0,0,0,.022-.821A1.277,1.277,0,0,0,535.542,317.237Z" transform="translate(-474.115 -312.301)" fill="#aeb0b3"/>
    <path id="Path_38512" data-name="Path 38512" d="M555.691,365.47c-1.77.5-3.505,1.153-5.373,1.857-1.883.71-3.918,1.476-6.252,2.184,2.708-.777,5.013-1.645,7.128-2.442C552.752,366.481,554.218,365.929,555.691,365.47Z" transform="translate(-481.392 -345.424)" fill="#aeb0b3"/>
    <path id="Path_38513" data-name="Path 38513" d="M497.641,434.795a8.018,8.018,0,0,0,2.959-3.44l2.637-5.721a4.422,4.422,0,0,1,1.657-1.871h-.012a2.962,2.962,0,0,0-2.115,1.532,3.353,3.353,0,0,0-.178.34l-2.637,5.721a8.886,8.886,0,0,1-.568,1.034,7.461,7.461,0,0,1-2.582,2.648l-.151.081a5.213,5.213,0,0,1-.482.222,4.874,4.874,0,0,0,1.324-.465Z" transform="translate(-449.019 -384.822)" fill="#aeb0b3"/>
    <path id="Path_38514" data-name="Path 38514" d="M468.554,411.849a.834.834,0,0,1-.2-.18,1.7,1.7,0,0,1,.083-1.829l7.487-15.646a1.319,1.319,0,0,0,.036-1.32,1.108,1.108,0,0,0-.952-.489c-.034,0-.067,0-.1.007a1.27,1.27,0,0,1,.312.333c.02.032.036.066.054.1.012.017.027.031.038.049a1.319,1.319,0,0,1-.036,1.32l-7.487,15.646a1.81,1.81,0,0,0-.175,1.678A1.279,1.279,0,0,0,468.554,411.849Z" transform="translate(-429.63 -363.615)" fill="#aeb0b3"/>
    <path id="Path_38515" data-name="Path 38515" d="M520.364,433.549l3.5-7.637a5.042,5.042,0,0,1,1.853-2.149l-.032,0a3.194,3.194,0,0,0-2.236,1.713c-.086.146-.164.292-.233.438l-3.5,7.637a2,2,0,0,1-.18.3,2.063,2.063,0,0,1-.694.726l.021,0A1.687,1.687,0,0,0,520.364,433.549Z" transform="translate(-464.343 -384.822)" fill="#aeb0b3"/>
    <path id="Path_38516" data-name="Path 38516" d="M673.8,450.63a28.035,28.035,0,0,1,5.209,2.274l.662.371.14.08.139-.153-.1-.058A27.19,27.19,0,0,0,673.8,450.63Z" transform="translate(-569.077 -402.982)" fill="#aeb0b3"/>
    <path id="Path_38517" data-name="Path 38517" d="M656.29,392.606a7.231,7.231,0,0,0,1.09,3.477,9.821,9.821,0,0,0,5.918,3.957c-3.664-1.233-6.2-4.024-6.359-7.434-.214-4.484,3.8-8.428,8.194-9.893a13.041,13.041,0,0,0-7.478,5.14A8.073,8.073,0,0,0,656.29,392.606Z" transform="translate(-557.236 -357.078)" fill="#aeb0b3"/>
    <path id="Path_38518" data-name="Path 38518" d="M641.74,459.451a2.167,2.167,0,0,0,.285.91,4.336,4.336,0,0,0,1.952,1.416,8.62,8.62,0,0,0,1.2.379c-.112-.04-.223-.08-.33-.124-.87-.352-2.346-1.154-2.458-2.581a2.226,2.226,0,0,1,1.121-2.2,4.388,4.388,0,0,1,.8-.394,4.948,4.948,0,0,0-1.627.627,2.387,2.387,0,0,0-.651.59A2.251,2.251,0,0,0,641.74,459.451Z" transform="translate(-547.401 -407.192)" fill="#aeb0b3"/>
    <path id="Path_38519" data-name="Path 38519" d="M373.6,375.035a96.617,96.617,0,0,0,17.607,6.938,96.059,96.059,0,0,1-16.762-6.693c-14.9-7.755-23.1-17.983-23.1-28.8s8.2-21.043,23.1-28.8a96.049,96.049,0,0,1,16.763-6.694,96.608,96.608,0,0,0-17.608,6.938c-8.786,4.574-15.229,10.006-19.015,15.9a22.51,22.51,0,0,0,0,25.3C358.376,365.029,364.819,370.461,373.6,375.035Z" transform="translate(-350.7 -308.6)" fill="#aeb0b3"/>
    <path id="Path_38520" data-name="Path 38520" d="M724.358,389.951a42.489,42.489,0,0,1,2.019-4.775c1.027-2.258,1.94-3.655,2.769-4.235a.222.222,0,0,0-.123-.041h-.038c-.555.027-1.194.6-1.906,1.7a22,22,0,0,0-1.351,2.577,42.489,42.489,0,0,0-2.019,4.775c-.477,1.289-1.066,2.762-2.1,5.319q.491-.372.96-.768C723.415,392.407,723.931,391.106,724.358,389.951Z" transform="translate(-601.388 -355.853)" fill="#aeb0b3"/>
    <path id="Path_38521" data-name="Path 38521" d="M573.217,395.011a.86.86,0,0,0-.094.008,1.507,1.507,0,0,1,.387.4c.021.032.033.066.052.1s.029.033.041.052a1.251,1.251,0,0,1,.192,1.028,20.39,20.39,0,0,1-1.929,4.286c-.132.218-.265.424-.4.608a1.364,1.364,0,0,1-.353.332c.017,0,.033,0,.05,0a1.339,1.339,0,0,0,1.052-.5,19.355,19.355,0,0,0,2.226-4.732,1.25,1.25,0,0,0-.192-1.028,1.233,1.233,0,0,0-1.034-.56Z" transform="translate(-499.675 -365.39)" fill="#aeb0b3"/>
    <path id="Path_38522" data-name="Path 38522" d="M597.129,427.266a.727.727,0,0,0,.121.01,1.04,1.04,0,0,0,.233-.031.87.87,0,0,1-.206-.478,2.39,2.39,0,0,1,.316-1.246l2.2-5.38a5.882,5.882,0,0,0,.549-2.062,2.552,2.552,0,0,0-2.28-2.767,2.627,2.627,0,0,1,1.12,1,2.979,2.979,0,0,1,.511,1.77,5.878,5.878,0,0,1-.549,2.062l-2.2,5.38a2.392,2.392,0,0,0-.316,1.246.98.98,0,0,0,.073.267A.645.645,0,0,0,597.129,427.266Z" transform="translate(-516.913 -379.111)" fill="#aeb0b3"/>
    <path id="Path_38523" data-name="Path 38523" d="M588.96,415.319a3.768,3.768,0,0,1,.3.309,4.2,4.2,0,0,1,.38-.193.67.67,0,0,0-.388-.153A1.486,1.486,0,0,0,588.96,415.319Z" transform="translate(-511.735 -379.091)" fill="#aeb0b3"/>
    <path id="Path_38524" data-name="Path 38524" d="M606.2,356.2a13.441,13.441,0,0,1,6.529,4.626c.206.273.4.555.576.842,2.362,3.632,2.658,8.362.815,13.424a36.4,36.4,0,0,1-3.452,7.074,30.347,30.347,0,0,1-3.5,4.591,11.3,11.3,0,0,1-3.752,2.8,9.3,9.3,0,0,0,4.523-2.988,33.5,33.5,0,0,0,6.831-11.476c1.959-5.382,1.5-10.39-1.287-14.1A13.267,13.267,0,0,0,606.2,356.2Z" transform="translate(-521.504 -339.16)" fill="#aeb0b3"/>
    <path id="Path_38525" data-name="Path 38525" d="M705.257,375.492a14.4,14.4,0,0,0-1.83-.6c.323.106.644.22.962.35a1.327,1.327,0,0,1,.687.635,1.038,1.038,0,0,1-.017,1.249l-.028.038a1.367,1.367,0,0,1-.075.128l-.043.056a1.332,1.332,0,0,1-.242.242,1,1,0,0,0,.143.012,1.056,1.056,0,0,0,.851-.421l.042-.056a1.065,1.065,0,0,0-.45-1.629Z" transform="translate(-589.101 -351.789)" fill="#aeb0b3"/>
    <path id="Path_38526" data-name="Path 38526" d="M528.7,415.9a2.607,2.607,0,0,1,.925.7c.1-.083.207-.159.311-.232A2.815,2.815,0,0,0,528.7,415.9Z" transform="translate(-471.009 -379.507)" fill="#aeb0b3"/>
    <path id="Path_38527" data-name="Path 38527" d="M783.8,403.887c-.034,0-.067,0-.1.007a1.276,1.276,0,0,1,.313.333c.02.032.036.066.053.1.012.017.028.031.039.049a1.32,1.32,0,0,1-.037,1.32l-.943,1.949h.293a1.516,1.516,0,0,1,.336.039l.961-1.988a1.319,1.319,0,0,0,.037-1.32A1.11,1.11,0,0,0,783.8,403.887Z" transform="translate(-642.969 -371.389)" fill="#aeb0b3"/>
    <path id="Path_38528" data-name="Path 38528" d="M765.556,401.657a2.022,2.022,0,0,1,.563.468,1.927,1.927,0,0,1,.2.289,1.689,1.689,0,0,1,.264,1.322,1.96,1.96,0,0,1-.28.7,2.484,2.484,0,0,1-1.016,1.013,2.16,2.16,0,0,0,1.944-1.714,1.687,1.687,0,0,0-.347-1.435A1.827,1.827,0,0,0,765.556,401.657Z" transform="translate(-630.907 -369.882)" fill="#aeb0b3"/>
    <path id="Path_38529" data-name="Path 38529" d="M805.714,442.647a.544.544,0,0,0-.148.024,1.046,1.046,0,0,1,.122.154.973.973,0,0,1,.048.09c.015.019.03.037.044.059a1.3,1.3,0,0,1-.062,1.257,4.784,4.784,0,0,1-.253.444,8.016,8.016,0,0,1-4.087,3.215,7.65,7.65,0,0,0,4.989-3.659,1.305,1.305,0,0,0,.062-1.257A.735.735,0,0,0,805.714,442.647Z" transform="translate(-655.305 -397.586)" fill="#aeb0b3"/>
    <path id="Path_38530" data-name="Path 38530" d="M789.254,444.719a1.512,1.512,0,0,0,1.141.494,1.436,1.436,0,0,1-.7-1.328,3.844,3.844,0,0,1,.592-1.758.632.632,0,0,1,.04-.063c-.3.03-.558.056-.6.058a.149.149,0,0,0-.109.057,3.728,3.728,0,0,0-.567,1.706A1.669,1.669,0,0,0,789.254,444.719Z" transform="translate(-646.971 -397.192)" fill="#aeb0b3"/>
    <path id="Path_38531" data-name="Path 38531" d="M786.4,416.334h-.128a1.291,1.291,0,0,1,.344.406,1.09,1.09,0,0,1,.22.654,1.227,1.227,0,0,1-.244.724,1.484,1.484,0,0,1-.238.33,1.582,1.582,0,0,1-.255.207,1.41,1.41,0,0,0,1.031-.4,1.234,1.234,0,0,0,.354-.86A1.037,1.037,0,0,0,786.4,416.334Z" transform="translate(-644.978 -379.802)" fill="#aeb0b3"/>
    <path id="Path_38532" data-name="Path 38532" d="M571.756,434.559a6.678,6.678,0,0,0,1.916-2.57c.955-1.77,3.617-6.992,3.64-7.035A4.611,4.611,0,0,1,578.834,423l-.065,0c-.806,0-1.44.771-1.817,1.384a6.164,6.164,0,0,0-.288.567c-.023.043-2.685,5.266-3.64,7.035-.28.518-.508.927-.728,1.269a4.986,4.986,0,0,1-1.3,1.482,1.216,1.216,0,0,0,.159.014A1.007,1.007,0,0,0,571.756,434.559Z" transform="translate(-499.595 -384.309)" fill="#aeb0b3"/>
    <path id="Path_38533" data-name="Path 38533" d="M804.091,415.917a3.166,3.166,0,0,1,1.491,1.327,2.922,2.922,0,0,1,.448,1.241,3.35,3.35,0,0,1-.193,1.521,7.934,7.934,0,0,1-.733,1.461,5.344,5.344,0,0,1-2.819,2.35,5.53,5.53,0,0,0,4.2-3.811,3.352,3.352,0,0,0,.192-1.521A2.959,2.959,0,0,0,804.091,415.917Z" transform="translate(-655.916 -379.52)" fill="#aeb0b3"/>
    <path id="Path_38534" data-name="Path 38534" d="M728.508,524.293a1,1,0,0,0-.133.011,1.383,1.383,0,0,1,.389.458,1.083,1.083,0,0,1,.139.255,1.1,1.1,0,0,1-.163,1.069,1.357,1.357,0,0,1-.73.624q-2.46.879-5.021,1.656c2.009-.594,3.98-1.23,5.9-1.916a1.089,1.089,0,0,0,.627-.572,1.113,1.113,0,0,0-1.009-1.585Z" transform="translate(-602.323 -452.769)" fill="#aeb0b3"/>
    <path id="Path_38535" data-name="Path 38535" d="M795.163,426.409a.38.38,0,0,0-.062.184,5.134,5.134,0,0,0,.657-.057.4.4,0,0,1,.052-.127l.53-1.065a5.118,5.118,0,0,1,1.327-1.995,1.344,1.344,0,0,0-.17-.017h-.011a1.665,1.665,0,0,0-1.238.922,9.68,9.68,0,0,0-.556,1.089Z" transform="translate(-651.061 -384.531)" fill="#aeb0b3"/>
    <path id="Path_38536" data-name="Path 38536" d="M681.651,470.439a14.425,14.425,0,0,1-5.1,2.853,14.391,14.391,0,0,0,5.89-3.06c.046-.04.09-.084.136-.125l-.352-.195Q681.943,470.182,681.651,470.439Z" transform="translate(-570.937 -416.014)" fill="#aeb0b3"/>
    <path id="Path_38537" data-name="Path 38537" d="M763.757,341.48c0-11.673-8.629-22.594-24.3-30.751a99.038,99.038,0,0,0-18.024-7.107,98.535,98.535,0,0,1,17.179,6.863c9.4,4.895,16.284,10.786,20.309,17.244a25.568,25.568,0,0,1,4.187,13.751,24.171,24.171,0,0,1-2.18,9.85,23.059,23.059,0,0,1-1.512,2.818,24.175,24.175,0,0,1-13.885,10.342c9.53-2.672,13.983-8.58,16.046-13.16A24.172,24.172,0,0,0,763.757,341.48Z" transform="translate(-601.271 -303.622)" fill="#aeb0b3"/>
    <path id="Path_38538" data-name="Path 38538" d="M423.08,403.9a7.113,7.113,0,0,1,3.8,3.143,7.54,7.54,0,0,1,1.06,3.06,6.869,6.869,0,0,1-1.151,4.2,6.133,6.133,0,0,1-1.507,1.7c-.056.042-.114.076-.172.112.029,0,.057.007.087.007h0a1.553,1.553,0,0,0,.891-.339,6.9,6.9,0,0,0,2.5-5.677A7.078,7.078,0,0,0,423.08,403.9Z" transform="translate(-399.62 -371.396)" fill="#aeb0b3"/>
    <path id="Path_38539" data-name="Path 38539" d="M434.766,404.368a12.349,12.349,0,0,0,3.145-10.056,19.479,19.479,0,0,0-1.93-5.876,16.9,16.9,0,0,1-1.732-4.984,4.54,4.54,0,0,1,1.124-3.625,4.947,4.947,0,0,1,1.75-1.267,4.436,4.436,0,0,0-2.516,1.45,4.6,4.6,0,0,0-.409.541,4.521,4.521,0,0,0-.6,2.9,16.9,16.9,0,0,0,1.732,4.984,19.482,19.482,0,0,1,1.93,5.876,12.391,12.391,0,0,1-1.848,8.371,13.164,13.164,0,0,1-1.418,1.87,14.211,14.211,0,0,1-6.025,3.877A13.954,13.954,0,0,0,434.766,404.368Z" transform="translate(-402.927 -354.271)" fill="#aeb0b3"/>
    <path id="Path_38540" data-name="Path 38540" d="M393.755,428.6a8.883,8.883,0,0,1-6-6.919,8.77,8.77,0,0,1,1.621-6.68,8.336,8.336,0,0,1,3.893-2.855,8.1,8.1,0,0,0-4.646,3.02c-.146.194-.281.4-.409.6a8.8,8.8,0,0,0-1.108,5.912,8.508,8.508,0,0,0,1.055,2.933A8.959,8.959,0,0,0,393.755,428.6Z" transform="translate(-375.227 -376.973)" fill="#aeb0b3"/>
    <path id="Path_38541" data-name="Path 38541" d="M477.47,456.629a6.738,6.738,0,0,1-1.558.846,6.112,6.112,0,0,0,1.72-.659C477.577,456.755,477.52,456.7,477.47,456.629Z" transform="translate(-435.328 -407.036)" fill="#aeb0b3"/>
    <path id="Path_38542" data-name="Path 38542" d="M464.812,370.827a4.87,4.87,0,0,1,2.542,2.129,4.623,4.623,0,0,1,.655,1.92,4.984,4.984,0,0,1-2.918,4.807,4.506,4.506,0,0,0,3.567-4.807A4.616,4.616,0,0,0,464.812,370.827Z" transform="translate(-427.826 -349.044)" fill="#aeb0b3"/>
    <path id="Path_38543" data-name="Path 38543" d="M700.827,402.269l-.193-.107.14-.171a45.845,45.845,0,0,0,4.938-7.691l.027-.051.051-.026c.055-.029.105-.056.16-.089,7.256-3.7,12.928-11.541,12.644-17.49-.114-2.376-1.034-3.758-2.6-3.943a2.9,2.9,0,0,1,1.313,1.337,5.835,5.835,0,0,1,.643,2.606c.134,2.8-1.048,6.009-3.091,9.015a26.6,26.6,0,0,1-9.752,8.721c-.033.02-.074.043-.117.066q-.934,1.758-1.85,3.254a38.887,38.887,0,0,1-3.051,4.38A69.492,69.492,0,0,0,714.55,408.5,73.288,73.288,0,0,1,700.827,402.269Z" transform="translate(-586.841 -350.312)" fill="#aeb0b3"/>
    <path id="Path_38544" data-name="Path 38544" d="M768.036,431.767a1.693,1.693,0,0,0-.142,1.3.914.914,0,0,0,.741.33,1.217,1.217,0,0,0,.124-.006l.028-.005a.935.935,0,0,1-.213-.247,1.589,1.589,0,0,1,.11-1.376l3.329-7.247a1.159,1.159,0,0,1,.1-.175h-.361a.4.4,0,0,0-.364.129c-.008.016-.016.029-.024.046Z" transform="translate(-632.618 -385.216)" fill="#aeb0b3"/>
    <path id="Path_38545" data-name="Path 38545" d="M776.762,454.668a6.877,6.877,0,0,1-2.2,1.5,5.45,5.45,0,0,0,2.428-1.207A3.239,3.239,0,0,1,776.762,454.668Z" transform="translate(-637.178 -405.711)" fill="#aeb0b3"/>
    <path id="Path_38546" data-name="Path 38546" d="M751.7,416.293c-.024,0-.046,0-.07,0a1.413,1.413,0,0,1,.378.385,1.3,1.3,0,0,1,.067.118c.008.012.019.021.027.033a1.135,1.135,0,0,1,.04,1.136l-3.884,8.3a2.271,2.271,0,0,0-.271,1.33.885.885,0,0,0,.058.163.973.973,0,0,0,.707.3.946.946,0,0,0,.128-.008l.02,0a.855.855,0,0,1-.265-.447,2.271,2.271,0,0,1,.271-1.33l3.884-8.3a1.135,1.135,0,0,0-.04-1.136A1.256,1.256,0,0,0,751.7,416.293Z" transform="translate(-619.202 -379.774)" fill="#aeb0b3"/>
    <path id="Path_38547" data-name="Path 38547" d="M757.159,456.437a6.393,6.393,0,0,1-1.541.891,5.2,5.2,0,0,0,1.7-.674A2.427,2.427,0,0,1,757.159,456.437Z" transform="translate(-624.376 -406.906)" fill="#aeb0b3"/>
  </g>
  <g id="Group_4070" data-name="Group 4070" transform="translate(45.994 76.701)">
    <path id="Path_38548" data-name="Path 38548" d="M464.489,499.859l-.177.542-2.6-.85-.52,1.593,2.493.815-.173.529-2.493-.814-.625,1.913-.568-.186,1.494-4.576Z" transform="translate(-459.822 -498.823)" fill="#fff"/>
    <path id="Path_38549" data-name="Path 38549" d="M473.221,506.829l-.1.5a1.1,1.1,0,0,1,1.159-.25,1.278,1.278,0,0,1,.687.464l-.378.391a1,1,0,0,0-1.754.356l-.526,1.813-.541-.157.945-3.257.5.146Z" transform="translate(-467.895 -504.139)" fill="#fff"/>
    <path id="Path_38550" data-name="Path 38550" d="M483.612,513.083a1.957,1.957,0,0,1-1.567.218,1.765,1.765,0,1,1,.858-3.423,1.618,1.618,0,0,1,1.143,2.353l-2.792-.723a1.149,1.149,0,0,0,.935,1.292,1.488,1.488,0,0,0,1.15-.142l.28.427Zm.032-1.439a1.025,1.025,0,0,0-.855-1.271,1.157,1.157,0,0,0-1.416.676l2.273.588Z" transform="translate(-473.927 -506.251)" fill="#fff"/>
    <path id="Path_38551" data-name="Path 38551" d="M494.34,513.442a1.3,1.3,0,0,0-.858-.532c-.454-.11-.859-.033-.926.3s.308.534.713.676c.585.21,1.362.513,1.164,1.327-.164.66-.868.846-1.611.677a1.85,1.85,0,0,1-1.339-.958l.4-.31a1.567,1.567,0,0,0,1.064.776c.361.082.849.073.954-.326.089-.36-.275-.556-.771-.731-.618-.224-1.263-.546-1.1-1.25s.925-.818,1.559-.667a1.807,1.807,0,0,1,1.159.727l-.4.29Z" transform="translate(-481.221 -507.973)" fill="#fff"/>
    <path id="Path_38552" data-name="Path 38552" d="M503.437,509.955l-.38,1.933a1.433,1.433,0,0,1,2.361,1.444l-.36,1.832-.546-.107.359-1.825a.91.91,0,0,0-.742-1.21,1.067,1.067,0,0,0-1.264.878l-.347,1.765-.552-.109.928-4.715.545.107Z" transform="translate(-488.306 -506.27)" fill="#fff"/>
    <path id="Path_38553" data-name="Path 38553" d="M521.218,520.161a16.475,16.475,0,1,0,.007-.006Z" transform="translate(-500.877 -512.23)" fill="#fff"/>
    <path id="Path_38554" data-name="Path 38554" d="M533.689,514.942l2.494,4,.432-3.656.587.069-.564,4.774-.409-.049-2.5-3.988-.43,3.642-.586-.069.564-4.774Z" transform="translate(-509.085 -509.684)" fill="#fff"/>
    <path id="Path_38555" data-name="Path 38555" d="M550.724,524.535l.02-.543a1.412,1.412,0,0,1-1.228.492,1.429,1.429,0,0,1-1.333-1.695l.163-1.867.561.049-.163,1.86a.964.964,0,0,0,.934,1.143,1.054,1.054,0,0,0,1.136-1.01l.159-1.812.561.049-.3,3.379-.52-.046Z" transform="translate(-519.536 -513.759)" fill="#fff"/>
    <path id="Path_38556" data-name="Path 38556" d="M561.474,520.1l1.048.068-.031.479-1.055-.068-.116,1.788c-.026.4.088.659.492.685a1.1,1.1,0,0,0,.48-.093l.134.477a1.671,1.671,0,0,1-.668.122c-.727-.033-1.042-.48-.993-1.227l.116-1.788-.678-.044.031-.479.678.044.061-.932.566-.026Z" transform="translate(-527.667 -512.533)" fill="#fff"/>
    <path id="Path_38557" data-name="Path 38557" d="M569.331,522.472l.017.51a1.1,1.1,0,0,1,1.07-.513,1.278,1.278,0,0,1,.777.291l-.276.468a1,1,0,0,0-1.624.755l-.09,1.886-.562-.027.161-3.389.521.025Z" transform="translate(-533.371 -514.795)" fill="#fff"/>
    <path id="Path_38558" data-name="Path 38558" d="M577.528,519.924l.563.019-.115,3.4-.562-.019Zm-.048-1.025a.371.371,0,0,0,.741.032A.371.371,0,0,0,577.48,518.9Z" transform="translate(-539.299 -512.154)" fill="#fff"/>
    <path id="Path_38559" data-name="Path 38559" d="M582.623,520.986l1.05.022-.01.48-1.057-.022-.037,1.791c-.008.4.117.655.522.663a1.109,1.109,0,0,0,.476-.113l.155.47a1.665,1.665,0,0,1-.662.151c-.728,0-1.062-.434-1.047-1.183l.037-1.791-.679-.014.01-.481.68.014.019-.934.564-.05Z" transform="translate(-541.974 -513.129)" fill="#fff"/>
    <path id="Path_38560" data-name="Path 38560" d="M590.82,519.175a.371.371,0,0,1-.741-.013A.371.371,0,0,1,590.82,519.175Zm-.694,4.415.563,0,.027-3.4-.563,0Z" transform="translate(-547.86 -512.325)" fill="#fff"/>
    <path id="Path_38561" data-name="Path 38561" d="M596.085,522.878a1.765,1.765,0,1,1-1.74,1.8A1.694,1.694,0,0,1,596.085,522.878Zm.012.515a1.181,1.181,0,0,0-1.189,1.275,1.2,1.2,0,1,0,2.4-.024A1.189,1.189,0,0,0,596.1,523.393Z" transform="translate(-550.743 -515.081)" fill="#fff"/>
    <path id="Path_38562" data-name="Path 38562" d="M609.732,526.072l-.047-.541a1.412,1.412,0,0,1-1.159.639A1.43,1.43,0,0,1,607,524.651l-.066-1.872.563-.02.066,1.866a.963.963,0,0,0,1.067,1.02,1.053,1.053,0,0,0,1-1.141l-.064-1.818.563-.02.12,3.389-.521.018Z" transform="translate(-559.249 -514.937)" fill="#fff"/>
    <path id="Path_38563" data-name="Path 38563" d="M621.419,522.829a1.3,1.3,0,0,0-.972-.273c-.467.021-.834.208-.807.543s.445.427.873.451c.621.039,1.451.113,1.487.951.026.679-.6,1.053-1.359,1.1a1.85,1.85,0,0,1-1.553-.548l.3-.41a1.566,1.566,0,0,0,1.237.45c.37-.022.836-.167.826-.579-.015-.37-.419-.457-.944-.487-.656-.044-1.366-.174-1.408-.894s.661-1.043,1.312-1.075a1.806,1.806,0,0,1,1.315.376l-.3.389Z" transform="translate(-567.467 -514.523)" fill="#fff"/>
    <path id="Path_38564" data-name="Path 38564" d="M635.883,523.789a132.128,132.128,0,1,0,.006-.007Z" transform="translate(-578.252 -514.677)" fill="#fff"/>
    <path id="Path_38565" data-name="Path 38565" d="M647.109,515.362l1.737-.222a2.272,2.272,0,0,1,2.7,2.029,2.3,2.3,0,0,1-2.086,2.745l-1.736.222-.609-4.767Zm3.839,1.876a1.711,1.711,0,0,0-2.029-1.526l-1.144.146.462,3.609,1.144-.146A1.743,1.743,0,0,0,650.948,517.238Z" transform="translate(-586.405 -509.833)" fill="#fff"/>
    <path id="Path_38566" data-name="Path 38566" d="M665.779,519.908a1.96,1.96,0,0,1-1.349.827,1.765,1.765,0,1,1-.584-3.481,1.618,1.618,0,0,1,1.989,1.7l-2.848.455a1.149,1.149,0,0,0,1.374.81,1.488,1.488,0,0,0,1-.591l.427.279Zm-.547-1.332a1.025,1.025,0,0,0-1.292-.823,1.158,1.158,0,0,0-1.027,1.187l2.319-.371Z" transform="translate(-596.714 -511.261)" fill="#fff"/>
    <path id="Path_38567" data-name="Path 38567" d="M674.813,516.458l-.554.1-.855-4.729.554-.1Z" transform="translate(-604.178 -507.546)" fill="#fff"/>
    <path id="Path_38568" data-name="Path 38568" d="M678.618,511.352a.371.371,0,0,1-.729.134A.371.371,0,0,1,678.618,511.352Zm.191,4.466.553-.107-.645-3.344-.553.107Z" transform="translate(-607.204 -507.087)" fill="#fff"/>
    <path id="Path_38569" data-name="Path 38569" d="M686.69,516.04a1.726,1.726,0,0,1-1.127.773,1.758,1.758,0,1,1-.732-3.439,1.693,1.693,0,0,1,1.308.241l-.272.437a1.233,1.233,0,0,0-.911-.157,1.166,1.166,0,0,0-.934,1.448,1.153,1.153,0,0,0,1.437.944,1.219,1.219,0,0,0,.792-.534l.448.29Z" transform="translate(-610.944 -508.631)" fill="#fff"/>
    <path id="Path_38570" data-name="Path 38570" d="M693.038,508.264a.371.371,0,0,1-.724.162A.371.371,0,0,1,693.038,508.264Zm.364,4.456.548-.128-.775-3.317-.549.128Z" transform="translate(-616.951 -505.009)" fill="#fff"/>
    <path id="Path_38571" data-name="Path 38571" d="M699.357,509.9a1.764,1.764,0,1,1-1.257,2.161A1.693,1.693,0,0,1,699.357,509.9Zm.135.5a1.182,1.182,0,0,0-.848,1.524,1.2,1.2,0,1,0,2.326-.6A1.189,1.189,0,0,0,699.492,510.392Z" transform="translate(-620.824 -506.262)" fill="#fff"/>
    <path id="Path_38572" data-name="Path 38572" d="M713,508.915l-.181-.512a1.412,1.412,0,0,1-.962.91A1.43,1.43,0,0,1,710,508.226l-.534-1.8.54-.161.532,1.79a.964.964,0,0,0,1.289.72,1.054,1.054,0,0,0,.685-1.357l-.519-1.744.54-.161.968,3.252-.5.149Z" transform="translate(-628.548 -503.347)" fill="#fff"/>
    <path id="Path_38573" data-name="Path 38573" d="M724.185,503.41a1.3,1.3,0,0,0-1.01-.006c-.445.143-.749.42-.635.737s.542.295.96.2c.61-.127,1.43-.274,1.685.524.2.648-.3,1.174-1.02,1.418a1.852,1.852,0,0,1-1.642-.119l.18-.474a1.565,1.565,0,0,0,1.312.107c.351-.119.763-.381.643-.776-.112-.354-.524-.33-1.039-.221-.644.131-1.363.193-1.594-.49s.362-1.181.982-1.383a1.8,1.8,0,0,1,1.368.016l-.187.455Z" transform="translate(-637.005 -501.514)" fill="#fff"/>
  </g>
</svg>
