<svg id="Component_52_1" data-name="Component 52 – 1" xmlns="http://www.w3.org/2000/svg" xmlns:xlink="http://www.w3.org/1999/xlink" width="139.079" height="73.589" viewBox="0 0 139.079 73.589">
  <defs>
    <clipPath id="clip-path">
      <rect id="Rectangle_46" data-name="Rectangle 46" width="139.079" height="73.589" fill="none"/>
    </clipPath>
  </defs>
  <g id="Group_4075" data-name="Group 4075">
    <g id="Group_4074" data-name="Group 4074" clip-path="url(#clip-path)">
      <path id="Path_38574" data-name="Path 38574" d="M294.733,220.161h-13.2l-3.741-11-9.682,13.422-14.74,3.74,7.7,9.02-4.181,12.541s7.921-17.16,24.2-15.621Z" transform="translate(-198.733 -209.161)" fill="#bc9937"/>
      <path id="Path_38575" data-name="Path 38575" d="M151.81,302.638v1.428a2.2,2.2,0,0,1-1.746,2.133,1.816,1.816,0,0,1,.885,1.51,2.464,2.464,0,0,1-2.772,2.441c-1.769,0-2.865-.931-2.865-2.441V304.8h3.738c.921,0,1.415-.437,1.415-1.32v-.838Zm-3.761,3.525h-1.711v1.191c0,.921.73,1.486,1.829,1.486.908,0,1.686-.507,1.686-1.3,0-.861-.8-1.38-1.8-1.38m-3.693,2.265h-1.32v-1.3h1.32Zm0-2.23h-1.32v-1.3h1.32Zm7.453-10.65V303h-1.344v-1.262a.819.819,0,0,0-.4-.8,2.045,2.045,0,0,0-.9-.141h-2.712V299.49H149.1a2.172,2.172,0,0,1,1.367.294v-4.234Zm2.584,5.285h-1.32v-1.3h1.32Zm0,2.228h-1.32v-1.3h1.32Zm-2.584-16.678v9.483h-1.344v-1.227a.8.8,0,0,0-.4-.79,2.084,2.084,0,0,0-.9-.141h-2.712V292.4H149.1a2.259,2.259,0,0,1,1.367.284v-6.3Zm-6.438,7.313h-1.31v-1.3h1.31Zm6.438-16.724v9.775h-1.344v-2.17H144.2v-1.3l4.27.143a4.367,4.367,0,0,1-2.04-3.457c0-2.04,1.39-3.053,4.15-3.053.389,0,.79.023,1.227.06m-1.344,1.3h-.376c-1.5,0-2.476.67-2.476,1.814,0,1.335,1.179,2.667,2.853,3.467Zm1.344-9.175v1.6c1.3.176,1.947,1.036,1.947,2.571h-1.039a1.212,1.212,0,0,0-.908-1.309v1.262a2.643,2.643,0,0,1-2.747,2.582,2.54,2.54,0,0,1-2.619-2.642,2.461,2.461,0,0,1,2.654-2.451h1.367V269.1Zm-1.344,2.936H148.85a1.166,1.166,0,0,0-1.191,1.156,1.23,1.23,0,0,0,1.335,1.272,1.373,1.373,0,0,0,1.473-1.262Zm-.79-5.979c1.428,0,2.135.66,2.135,1.982v1.39h-1.344v-1.119a.839.839,0,0,0-.389-.838,2.584,2.584,0,0,0-.848-.1H144.2v-1.32Zm2.135-1.214h-7.619v-1.31h7.619Z" transform="translate(-143.037 -236.607)" fill="#bc9937"/>
    </g>
  </g>
  <path id="Path_38576" data-name="Path 38576" d="M198.614,263.563h-2.64v29.395l-21.738-29.55h-4.841v40.638h2.2V270.251l24.554,33.662h2.464Z" transform="translate(-156.344 -236.545)" fill="#161615"/>
  <path id="Path_38577" data-name="Path 38577" d="M241.551,303.711H247.4V263.093h-5.852v40.773" transform="translate(-192.768 -236.387)" fill="#161615"/>
  <path id="Path_38578" data-name="Path 38578" d="M380.433,263.095l-11.616,27.241-10.561-27.241h-7.745v40.773H352.8v-35.8l13.73,34.937,13.9-30.626V303.71h6.337V263.095Z" transform="translate(-247.691 -236.387)" fill="#161615"/>
  <g id="Group_4077" data-name="Group 4077">
    <g id="Group_4076" data-name="Group 4076" clip-path="url(#clip-path)">
      <path id="Path_38579" data-name="Path 38579" d="M302.888,293.819V281.975h-7.257v16.055a12.589,12.589,0,0,1-7.156,2.282c-8.176,0-14.806-8.207-14.806-18.327s6.63-18.327,14.806-18.327c4.481,0,8.492,2.468,11.206,6.359l1.9-1.092a19.532,19.532,0,0,0-15.18-7.336c-10.979,0-19.879,9.258-19.879,20.679s8.9,20.683,19.879,20.683a19.663,19.663,0,0,0,16.492-9.133" transform="translate(-205.37 -235.628)" fill="#161615"/>
      <path id="Path_38580" data-name="Path 38580" d="M324.4,232.264l2.576,2.795-11.349,10.4a32.073,32.073,0,0,0-4.764-1.279Z" transform="translate(-227.754 -220.824)" fill="#161615"/>
    </g>
  </g>
  <rect id="Rectangle_48" data-name="Rectangle 48" width="126.023" height="6.109" transform="translate(13.053 67.48)" fill="#161615"/>
</svg>
