<svg id="Component_54_1" data-name="Component 54 – 1" xmlns="http://www.w3.org/2000/svg" width="131.682" height="52.21" viewBox="0 0 131.682 52.21">
  <g id="Group_4062" data-name="Group 4062">
    <path id="Path_38494" data-name="Path 38494" d="M260.912,221.281V188.545h-5.978v-1.567h14.221v1.567H263v32.736Z" transform="translate(-254.934 -186.978)" fill="#373738"/>
    <path id="Path_38495" data-name="Path 38495" d="M337.559,238.308a10.659,10.659,0,0,1-2.641-.348,4.11,4.11,0,0,1-2.351-1.77,7.89,7.89,0,0,1-.987-4.44v-2.263a6.59,6.59,0,0,1,1.8-4.876,17.679,17.679,0,0,1,4.76-3.25q2.031-1.1,3.4-1.916a6.775,6.775,0,0,0,2.09-1.828,4.338,4.338,0,0,0,.725-2.583v-1.045a3.907,3.907,0,0,0-.725-2.554,3.487,3.487,0,0,0-1.857-1.161,9.691,9.691,0,0,0-2.409-.29q-3.193,0-4.179,1.6a8.7,8.7,0,0,0-.987,4.556v2.438h-1.915v-2.612a11.457,11.457,0,0,1,.58-3.8,4.961,4.961,0,0,1,2.09-2.612,8.3,8.3,0,0,1,4.411-.958,10.51,10.51,0,0,1,4.643.783,3.674,3.674,0,0,1,1.944,2.177,10.276,10.276,0,0,1,.435,3.076V237.9h-2.031l-.058-3.773a5.942,5.942,0,0,1-2.67,3.134A8.15,8.15,0,0,1,337.559,238.308Zm.581-1.509a5.249,5.249,0,0,0,4.672-2.177,9.987,9.987,0,0,0,1.48-5.717v-10.1a7.105,7.105,0,0,1-2.351,2.032q-1.6.929-3.221,1.8a14.288,14.288,0,0,0-3.773,2.815,5.8,5.8,0,0,0-1.335,4.034V231.4a7.224,7.224,0,0,0,.725,3.744,2.973,2.973,0,0,0,1.8,1.393A8.5,8.5,0,0,0,338.14,236.8Z" transform="translate(-313.878 -203.598)" fill="#373738"/>
  </g>
  <g id="Group_4063" data-name="Group 4063" transform="translate(37.99 4.018)">
    <path id="Path_38496" data-name="Path 38496" d="M440.162,204.373a7.716,7.716,0,0,0-6.511,3.588,7.714,7.714,0,0,0-14.231,4.134v23.1h2.422v-23.1a5.3,5.3,0,1,1,10.6,0v23.1h2.422v-23.1a5.3,5.3,0,0,1,10.6,0v23.1h2.421v-23.1A7.73,7.73,0,0,0,440.162,204.373Z" transform="translate(-419.42 -204.373)" fill="#373738"/>
  </g>
  <path id="Path_38497" data-name="Path 38497" d="M474.511,279.555H473.3v23.1a5.3,5.3,0,0,1-10.6,0v-23.1h-2.421v23.1c0,.006,0,.011,0,.016a5.3,5.3,0,0,1-10.6-.017V279.553h-1.211v0h-1.21v23.1a7.714,7.714,0,0,0,14.232,4.134,7.714,7.714,0,0,0,14.232-4.134v-23.1Z" transform="translate(-402.838 -258.17)" fill="#002679"/>
  <g id="Group_4064" data-name="Group 4064" transform="translate(77.064 21.092)">
    <path id="Path_38498" data-name="Path 38498" d="M596.256,308.263a12.529,12.529,0,0,1-4.557-.667,4.237,4.237,0,0,1-2.38-2.351,12.394,12.394,0,0,1-.725-4.76V285.452q0-4,1.654-5.456t5.659-1.451q4,0,5.6,1.451t1.6,5.456v7.255H590.684v8.242q0,3.251,1.074,4.527t4.382,1.277q2.9,0,3.889-1.248t.987-4.556v-3.367h2.09v2.844a12.952,12.952,0,0,1-.7,4.7,4.323,4.323,0,0,1-2.177,2.438A9.453,9.453,0,0,1,596.256,308.263Zm-5.572-16.949h10.331v-5.862a6.92,6.92,0,0,0-.987-4.179Q599.041,280,595.908,280q-3.077,0-4.15,1.277a6.483,6.483,0,0,0-1.074,4.179Z" transform="translate(-588.594 -278.487)" fill="#002679"/>
    <path id="Path_38499" data-name="Path 38499" d="M680.943,308.263a12.528,12.528,0,0,1-4.556-.667,4.236,4.236,0,0,1-2.38-2.351,12.388,12.388,0,0,1-.726-4.76V285.452q0-4,1.654-5.456t5.659-1.451q4,0,5.6,1.451t1.6,5.456v7.255H675.371v8.242q0,3.251,1.074,4.527t4.382,1.277q2.9,0,3.889-1.248t.987-4.556v-3.367h2.089v2.844a12.95,12.95,0,0,1-.7,4.7,4.324,4.324,0,0,1-2.177,2.438A9.456,9.456,0,0,1,680.943,308.263Zm-5.572-16.949H685.7v-5.862a6.918,6.918,0,0,0-.987-4.179Q683.728,280,680.595,280q-3.077,0-4.15,1.277a6.483,6.483,0,0,0-1.074,4.179Z" transform="translate(-653.721 -278.487)" fill="#002679"/>
    <path id="Path_38500" data-name="Path 38500" d="M761.486,307.548V278.816h1.683l.348,2.9a4.192,4.192,0,0,1,2.264-2.554,7.836,7.836,0,0,1,3.54-.871,7.451,7.451,0,0,1,4.615,1.132,5.05,5.05,0,0,1,1.828,2.873,16.078,16.078,0,0,1,.406,3.657v21.592h-2.089v-21.07q0-1.219-.058-2.38a5.437,5.437,0,0,0-.522-2.119,3.334,3.334,0,0,0-1.538-1.509,6.971,6.971,0,0,0-3.105-.552,5.49,5.49,0,0,0-2.96.7,4.4,4.4,0,0,0-1.6,1.625,9.762,9.762,0,0,0-.726,1.683v23.624Z" transform="translate(-721.554 -278.294)" fill="#002679"/>
  </g>
</svg>
