<svg id="Component_53_1" data-name="Component 53 – 1" xmlns="http://www.w3.org/2000/svg" xmlns:xlink="http://www.w3.org/1999/xlink" width="158.023" height="63.082" viewBox="0 0 158.023 63.082">
  <defs>
    <clipPath id="clip-path">
      <rect id="Rectangle_49" data-name="Rectangle 49" width="158.023" height="63.081" fill="none"/>
    </clipPath>
  </defs>
  <path id="Path_38615" data-name="Path 38615" d="M2.063,460.775v2.085H68.789v33.73H-84.988v-33.73h66.726v-2.085H-87.111v37.9H70.912v-37.9Z" transform="translate(87.111 -435.592)" fill="#1a1818"/>
  <g id="Group_4099" data-name="Group 4099">
    <g id="Group_4098" data-name="Group 4098" clip-path="url(#clip-path)">
      <path id="Path_38616" data-name="Path 38616" d="M33.533,441.842c.528-2.707.339-6.667-4.641-8.1-8.047-2.323-4.767-11.281-4.767-11.281-2.021,9.616,6.108,8.951,8.751,11.146a6.017,6.017,0,0,1,2.108,3.556c.413-1.505.483-1.858.483-1.858s3.479-9.381-4.564-11.855-9.5-6.785-9.5-6.785-6.222,17.071,2.666,20.307c7.455,2.713,9.116,4.4,9.46,4.874" transform="translate(41.447 -416.66)" fill="#70b32f"/>
      <path id="Path_38617" data-name="Path 38617" d="M53.352,449.135c-.143-1.8.273-4.362,3.619-4.927,5.406-.914,3.936-6.984,3.936-6.984.6,6.4-4.636,5.37-6.518,6.6a3.944,3.944,0,0,0-1.635,2.157c-.156-1.01-.176-1.244-.176-1.244s-1.568-6.36,3.847-7.372,6.679-3.71,6.679-3.71,2.782,11.565-3.238,13.011c-5.05,1.212-6.256,2.187-6.514,2.469" transform="translate(27.251 -423.954)" fill="#70b32f"/>
      <path id="Path_38618" data-name="Path 38618" d="M68.523,493.2a5.641,5.641,0,0,1-1.915.378c-1.276,0-1.607-.543-1.607-1.938v-5.648h3.521v-2.363H65.19c-.189,0-.189-.071-.189-.236v-3.355H62.756c-.26,2.576-1.087,3.616-3.166,3.852v2.1h1.654c.189,0,.189.095.189.236v6.192c0,2.671,1.063,3.805,3.875,3.805a9.449,9.449,0,0,0,3.853-.945Zm-17.016-4.75c.142-1.938.969-2.5,1.985-2.5.969,0,1.749.519,1.772,2.5Zm6.287,4.23a10.064,10.064,0,0,1-3.521.8c-1.938,0-2.67-1.11-2.789-2.789h7.232c.023-.473.047-1.3.047-1.583,0-4.088-2.08-5.719-5.2-5.719-3.238,0-5.861,2.033-5.861,6.31,0,3.687,1.56,6.523,6.121,6.523a11.04,11.04,0,0,0,4.845-1.206Zm-11.012,3.261v-1.867L45.6,493.9c-.354-.047-.378-.095-.378-.473V487.4c0-2.6-.993-4.017-3.568-4.017a6.931,6.931,0,0,0-4.16,1.513l-.094-.047-.189-1.229H33.074l-.283,1.915,1.276.449c.236.071.308.236.308.5v6.948c0,.354-.047.425-.378.473l-1.063.142v1.891h6.523v-1.867L38.32,493.9c-.354-.047-.378-.095-.378-.473V487.1a4.769,4.769,0,0,1,2.458-.875c1.182,0,1.252.945,1.252,2.08v7.633Zm-19.71-3.12a3.884,3.884,0,0,1-2.15.851,1.184,1.184,0,0,1-1.347-1.3c0-.945.5-1.3,1.891-1.395l1.607-.118Zm4.987,3.12v-1.867l-1.135-.189c-.354-.047-.378-.094-.378-.473v-5.743c0-3.309-1.441-4.278-5.034-4.278-2.174,0-5.081.449-5.081,3.64l3.332.284c0-1.418.591-1.583,1.725-1.583,1.465,0,1.583.756,1.583,1.867v1.3l-2.718.189c-2.954.189-4.419,1.276-4.419,3.64,0,1.465.473,3.5,3.451,3.5a5.33,5.33,0,0,0,3.97-1.583l.118.023.236,1.276Zm-13.211,0v-1.867l-1.158-.165c-.354-.047-.378-.095-.378-.473V478.094H12.4l-.26,1.914,1.3.449c.236.071.308.236.308.5v12.478c0,.354-.047.425-.378.473l-1.182.165v1.867ZM2.825,487.1v-5.7H4.219c1.678,0,3.072.4,3.072,2.67,0,2.67-1.725,3.025-3.285,3.025Zm3.757,8.839v-1.867L3.2,493.88c-.354-.047-.378-.094-.378-.473v-3.781H4.55c3.994,0,6.476-1.654,6.476-5.766,0-2.718-1.324-5.034-5.7-5.034H-2.682v1.891l1.489.166c.331.023.378.118.378.473v12.076c0,.354-.047.425-.378.473l-1.489.165v1.867Zm-16.883,0v-1.867l-1.182-.165c-.354-.047-.378-.095-.378-.473v-6.216c0-2.457-.921-3.829-3.427-3.829a5.8,5.8,0,0,0-3.781,1.418l-.118-.023v-6.688h-4.868l-.26,1.914,1.3.449c.236.071.308.236.308.5v12.478c0,.354-.047.425-.378.473l-1.063.165v1.867h6.523v-1.867l-1.135-.165c-.354-.047-.378-.095-.378-.473V487.1a4.664,4.664,0,0,1,2.458-.875c1.182,0,1.252,1.3,1.252,2.009v7.7ZM-25.757,487.5v-3.427a14.072,14.072,0,0,0-4.349-.686c-2.718,0-5.223,1.206-5.223,4.136,0,3.1,2.6,3.521,4.584,3.876,1.206.213,2.151.5,2.151,1.442,0,.874-.709,1.228-1.961,1.228a6.134,6.134,0,0,1-1.82-.236c-.213-.047-.26-.142-.284-.354l-.236-1.347-2.529-.19v3.427a12.088,12.088,0,0,0,4.679.851c3,0,5.341-1.182,5.341-4.065,0-2.765-2.1-3.427-3.97-3.852-1.442-.331-2.742-.544-2.742-1.513,0-.756.662-1.205,1.843-1.205a5.621,5.621,0,0,1,1.513.189c.166.047.213.142.236.331l.236,1.229Zm-18.339.945c.142-1.938.969-2.5,1.985-2.5.969,0,1.749.519,1.772,2.5Zm6.287,4.23a10.064,10.064,0,0,1-3.521.8c-1.938,0-2.67-1.11-2.789-2.789h7.231c.024-.473.047-1.3.047-1.583,0-4.088-2.08-5.719-5.2-5.719-3.238,0-5.861,2.033-5.861,6.31,0,3.687,1.56,6.523,6.121,6.523a11.04,11.04,0,0,0,4.845-1.206Zm-13.447,3.261v-1.891l-2.34-.189c-.354-.024-.378-.095-.378-.473v-6.263a3.124,3.124,0,0,1,1.7-.827c.189,0,.26.047.307.26l.236,1.252,2.836.095v-4.3a10.99,10.99,0,0,0-2.056-.213,3.959,3.959,0,0,0-3.332,2.127h-.142l-.284-1.891h-4.159l-.26,1.915,1.276.449c.236.071.307.236.307.5v6.924c0,.354-.047.425-.378.473l-1.063.142v1.914Zm-11.675,0v-1.867l-3.474-.189c-.354-.047-.378-.094-.378-.473v-4.774h5.435v-2.623h-5.435v-4.632h3.616c.26,0,.354.071.4.308l.331,1.8,2.6.118v-4.774H-72.313v1.867l1.489.166c.331.023.378.118.378.473v12.123c0,.354-.047.425-.378.473l-1.489.166v1.843Z" transform="translate(80.76 -443.025)" fill="#1a1818"/>
    </g>
  </g>
</svg>
